# Recursive Industry procedural product cartridge
o RecursiveIndustry_Cartridge
v 0 0.5 0
v -0.35 0.5 -0.5
v 0.35 0.5 -0.5
v 0.5 0.5 -0.35
v 0.5 0.5 0.35
v 0.35 0.5 0.5
v -0.35 0.5 0.5
v -0.5 0.5 0.35
v -0.5 0.5 -0.35
v 0 -0.5 0
v -0.35 -0.5 -0.5
v 0.35 -0.5 -0.5
v 0.5 -0.5 -0.35
v 0.5 -0.5 0.35
v 0.35 -0.5 0.5
v -0.35 -0.5 0.5
v -0.5 -0.5 0.35
v -0.5 -0.5 -0.35
v -0.35 -0.5 -0.5
v -0.35 0.5 -0.5
v 0.35 0.5 -0.5
v 0.35 -0.5 -0.5
v 0.35 -0.5 -0.5
v 0.35 0.5 -0.5
v 0.5 0.5 -0.35
v 0.5 -0.5 -0.35
v 0.5 -0.5 -0.35
v 0.5 0.5 -0.35
v 0.5 0.5 0.35
v 0.5 -0.5 0.35
v 0.5 -0.5 0.35
v 0.5 0.5 0.35
v 0.35 0.5 0.5
v 0.35 -0.5 0.5
v 0.35 -0.5 0.5
v 0.35 0.5 0.5
v -0.35 0.5 0.5
v -0.35 -0.5 0.5
v -0.35 -0.5 0.5
v -0.35 0.5 0.5
v -0.5 0.5 0.35
v -0.5 -0.5 0.35
v -0.5 -0.5 0.35
v -0.5 0.5 0.35
v -0.5 0.5 -0.35
v -0.5 -0.5 -0.35
v -0.5 -0.5 -0.35
v -0.5 0.5 -0.35
v -0.35 0.5 -0.5
v -0.35 -0.5 -0.5
vt 0.5 0.5
vt 0.15 0.05
vt 0.85 0.05
vt 0.95 0.15
vt 0.95 0.85
vt 0.85 0.95
vt 0.15 0.95
vt 0.05 0.85
vt 0.05 0.15
vt 0.5 0.02
vt 0.1 0.02
vt 0.11 0.02
vt 0.12 0.02
vt 0.13 0.02
vt 0.14 0.02
vt 0.15 0.02
vt 0.16 0.02
vt 0.17 0.02
vt 0 0
vt 0 0.07
vt 0.125 0.07
vt 0.125 0
vt 0.125 0
vt 0.125 0.07
vt 0.25 0.07
vt 0.25 0
vt 0.25 0
vt 0.25 0.07
vt 0.375 0.07
vt 0.375 0
vt 0.375 0
vt 0.375 0.07
vt 0.5 0.07
vt 0.5 0
vt 0.5 0
vt 0.5 0.07
vt 0.625 0.07
vt 0.625 0
vt 0.625 0
vt 0.625 0.07
vt 0.75 0.07
vt 0.75 0
vt 0.75 0
vt 0.75 0.07
vt 0.875 0.07
vt 0.875 0
vt 0.875 0
vt 0.875 0.07
vt 1 0.07
vt 1 0
vn 0 1 0
vn 0 1 0
vn 0 1 0
vn 0 1 0
vn 0 1 0
vn 0 1 0
vn 0 1 0
vn 0 1 0
vn 0 1 0
vn 0 -1 0
vn 0 -1 0
vn 0 -1 0
vn 0 -1 0
vn 0 -1 0
vn 0 -1 0
vn 0 -1 0
vn 0 -1 0
vn 0 -1 0
vn 0 0 -1
vn 0 0 -1
vn 0 0 -1
vn 0 0 -1
vn 0.707107 0 -0.707107
vn 0.707107 0 -0.707107
vn 0.707107 0 -0.707107
vn 0.707107 0 -0.707107
vn 1 0 0
vn 1 0 0
vn 1 0 0
vn 1 0 0
vn 0.707107 0 0.707107
vn 0.707107 0 0.707107
vn 0.707107 0 0.707107
vn 0.707107 0 0.707107
vn 0 0 1
vn 0 0 1
vn 0 0 1
vn 0 0 1
vn -0.707107 0 0.707107
vn -0.707107 0 0.707107
vn -0.707107 0 0.707107
vn -0.707107 0 0.707107
vn -1 0 0
vn -1 0 0
vn -1 0 0
vn -1 0 0
vn -0.707107 0 -0.707107
vn -0.707107 0 -0.707107
vn -0.707107 0 -0.707107
vn -0.707107 0 -0.707107
s off
f 1/1/1 3/3/3 2/2/2
f 1/1/1 4/4/4 3/3/3
f 1/1/1 5/5/5 4/4/4
f 1/1/1 6/6/6 5/5/5
f 1/1/1 7/7/7 6/6/6
f 1/1/1 8/8/8 7/7/7
f 1/1/1 9/9/9 8/8/8
f 1/1/1 2/2/2 9/9/9
f 10/10/10 11/11/11 12/12/12
f 10/10/10 12/12/12 13/13/13
f 10/10/10 13/13/13 14/14/14
f 10/10/10 14/14/14 15/15/15
f 10/10/10 15/15/15 16/16/16
f 10/10/10 16/16/16 17/17/17
f 10/10/10 17/17/17 18/18/18
f 10/10/10 18/18/18 11/11/11
f 19/19/19 20/20/20 21/21/21
f 19/19/19 21/21/21 22/22/22
f 23/23/23 24/24/24 25/25/25
f 23/23/23 25/25/25 26/26/26
f 27/27/27 28/28/28 29/29/29
f 27/27/27 29/29/29 30/30/30
f 31/31/31 32/32/32 33/33/33
f 31/31/31 33/33/33 34/34/34
f 35/35/35 36/36/36 37/37/37
f 35/35/35 37/37/37 38/38/38
f 39/39/39 40/40/40 41/41/41
f 39/39/39 41/41/41 42/42/42
f 43/43/43 44/44/44 45/45/45
f 43/43/43 45/45/45 46/46/46
f 47/47/47 48/48/48 49/49/49
f 47/47/47 49/49/49 50/50/50
