v 0.48 -0.08 0
v 0.48 0.08 0
v 0.339411229 0.08 0.339411229
v 0.339411229 -0.08 0.339411229
v 0 0.08 0
v 0.48 0.08 0
v 0.339411229 0.08 0.339411229
v 0.339411229 -0.08 0.339411229
v 0.339411229 0.08 0.339411229
v -2.09814655E-08 0.08 0.48
v -2.09814655E-08 -0.08 0.48
v 0 0.08 0
v 0.339411229 0.08 0.339411229
v -2.09814655E-08 0.08 0.48
v -2.09814655E-08 -0.08 0.48
v -2.09814655E-08 0.08 0.48
v -0.339411229 0.08 0.339411229
v -0.339411229 -0.08 0.339411229
v 0 0.08 0
v -2.09814655E-08 0.08 0.48
v -0.339411229 0.08 0.339411229
v -0.339411229 -0.08 0.339411229
v -0.339411229 0.08 0.339411229
v -0.48 0.08 -4.196293E-08
v -0.48 -0.08 -4.196293E-08
v 0 0.08 0
v -0.339411229 0.08 0.339411229
v -0.48 0.08 -4.196293E-08
v -0.48 -0.08 -4.196293E-08
v -0.48 0.08 -4.196293E-08
v -0.3394112 0.08 -0.3394113
v -0.3394112 -0.08 -0.3394113
v 0 0.08 0
v -0.48 0.08 -4.196293E-08
v -0.3394112 0.08 -0.3394113
v -0.3394112 -0.08 -0.3394113
v -0.3394112 0.08 -0.3394113
v 5.72394265E-09 0.08 -0.48
v 5.72394265E-09 -0.08 -0.48
v 0 0.08 0
v -0.3394112 0.08 -0.3394113
v 5.72394265E-09 0.08 -0.48
v 5.72394265E-09 -0.08 -0.48
v 5.72394265E-09 0.08 -0.48
v 0.339411348 0.08 -0.339411139
v 0.339411348 -0.08 -0.339411139
v 0 0.08 0
v 5.72394265E-09 0.08 -0.48
v 0.339411348 0.08 -0.339411139
v 0.339411348 -0.08 -0.339411139
v 0.339411348 0.08 -0.339411139
v 0.48 0.08 8.392586E-08
v 0.48 -0.08 8.392586E-08
v 0 0.08 0
v 0.339411348 0.08 -0.339411139
v 0.48 0.08 8.392586E-08
v 0 -0.08 0
v 0.48 -0.08 0
v 0.339411229 -0.08 0.339411229
v 0 -0.08 0
v 0.339411229 -0.08 0.339411229
v -2.09814655E-08 -0.08 0.48
v 0 -0.08 0
v -2.09814655E-08 -0.08 0.48
v -0.339411229 -0.08 0.339411229
v 0 -0.08 0
v -0.339411229 -0.08 0.339411229
v -0.48 -0.08 -4.196293E-08
v 0 -0.08 0
v -0.48 -0.08 -4.196293E-08
v -0.3394112 -0.08 -0.3394113
v 0 -0.08 0
v -0.3394112 -0.08 -0.3394113
v 5.72394265E-09 -0.08 -0.48
v 0 -0.08 0
v 5.72394265E-09 -0.08 -0.48
v 0.339411348 -0.08 -0.339411139
v 0 -0.08 0
v 0.339411348 -0.08 -0.339411139
v 0.48 -0.08 8.392586E-08
vt 0.9941406 0.25
vt 0.9941406 0.25
vt 0.959245145 0.422633469
vt 0.959245145 0.422633469
vt 0.875 0.25
vt 0.9941406 0.25
vt 0.959245145 0.422633469
vt 0.959245145 0.422633469
vt 0.959245145 0.422633469
vt 0.875 0.494140625
vt 0.875 0.494140625
vt 0.875 0.25
vt 0.959245145 0.422633469
vt 0.875 0.494140625
vt 0.875 0.494140625
vt 0.875 0.494140625
vt 0.790754855 0.422633469
vt 0.790754855 0.422633469
vt 0.875 0.25
vt 0.875 0.494140625
vt 0.790754855 0.422633469
vt 0.790754855 0.422633469
vt 0.790754855 0.422633469
vt 0.7558594 0.249999985
vt 0.7558594 0.249999985
vt 0.875 0.25
vt 0.790754855 0.422633469
vt 0.7558594 0.249999985
vt 0.7558594 0.249999985
vt 0.7558594 0.249999985
vt 0.790754855 0.0773664862
vt 0.790754855 0.0773664862
vt 0.875 0.25
vt 0.7558594 0.249999985
vt 0.790754855 0.0773664862
vt 0.790754855 0.0773664862
vt 0.790754855 0.0773664862
vt 0.875 0.005859375
vt 0.875 0.005859375
vt 0.875 0.25
vt 0.790754855 0.0773664862
vt 0.875 0.005859375
vt 0.875 0.005859375
vt 0.875 0.005859375
vt 0.959245145 0.07736656
vt 0.959245145 0.07736656
vt 0.875 0.25
vt 0.875 0.005859375
vt 0.959245145 0.07736656
vt 0.959245145 0.07736656
vt 0.959245145 0.07736656
vt 0.9941406 0.25000003
vt 0.9941406 0.25000003
vt 0.875 0.25
vt 0.959245145 0.07736656
vt 0.9941406 0.25000003
vt 0.875 0.25
vt 0.7558594 0.005859375
vt 0.9941406 0.494140625
vt 0.875 0.25
vt 0.7558594 0.005859375
vt 0.9941406 0.494140625
vt 0.875 0.25
vt 0.7558594 0.005859375
vt 0.9941406 0.494140625
vt 0.875 0.25
vt 0.7558594 0.005859375
vt 0.9941406 0.494140625
vt 0.875 0.25
vt 0.7558594 0.005859375
vt 0.9941406 0.494140625
vt 0.875 0.25
vt 0.7558594 0.005859375
vt 0.9941406 0.494140625
vt 0.875 0.25
vt 0.7558594 0.005859375
vt 0.9941406 0.494140625
vt 0.875 0.25
vt 0.7558594 0.005859375
vt 0.9941406 0.494140625
vn 0.923879445 0 0.382683456
vn 0.923879445 0 0.382683456
vn 0.923879445 0 0.382683456
vn 0.923879445 0 0.382683456
vn 0 1 0
vn 0 1 0
vn 0 1 0
vn 0.382683456 0 0.9238795
vn 0.382683456 0 0.9238795
vn 0.382683456 0 0.9238795
vn 0.382683456 0 0.9238795
vn 0 1 0
vn 0 1 0
vn 0 1 0
vn -0.382683516 0 0.9238795
vn -0.382683516 0 0.9238795
vn -0.382683516 0 0.9238795
vn -0.382683516 0 0.9238795
vn 0 1 0
vn 0 1 0
vn 0 1 0
vn -0.9238795 0 0.382683456
vn -0.9238795 0 0.382683456
vn -0.9238795 0 0.382683456
vn -0.9238795 0 0.382683456
vn 0 1 0
vn 0 1 0
vn 0 1 0
vn -0.9238795 0 -0.382683545
vn -0.9238795 0 -0.382683545
vn -0.9238795 0 -0.382683545
vn -0.9238795 0 -0.382683545
vn 0 1 0
vn 0 1 0
vn 0 1 0
vn -0.3826834 0 -0.9238796
vn -0.3826834 0 -0.9238796
vn -0.3826834 0 -0.9238796
vn -0.3826834 0 -0.9238796
vn 0 1 0
vn 0 1 0
vn 0 1 0
vn 0.382683575 0 -0.923879445
vn 0.382683575 0 -0.923879445
vn 0.382683575 0 -0.923879445
vn 0.382683575 0 -0.923879445
vn 0 1 0
vn 0 1 0
vn 0 1 0
vn 0.9238797 0 -0.382683218
vn 0.9238797 0 -0.382683218
vn 0.9238797 0 -0.382683218
vn 0.9238797 0 -0.382683218
vn 0 1 0
vn 0 1 0
vn 0 1 0
vn 0 -1 0
vn 0 -1 0
vn 0 -1 0
vn 0 -1 0
vn 0 -1 0
vn 0 -1 0
vn 0 -1 0
vn 0 -1 0
vn 0 -1 0
vn 0 -1 0
vn 0 -1 0
vn 0 -1 0
vn 0 -1 0
vn 0 -1 0
vn 0 -1 0
vn 0 -1 0
vn 0 -1 0
vn 0 -1 0
vn 0 -1 0
vn 0 -1 0
vn 0 -1 0
vn 0 -1 0
vn 0 -1 0
vn 0 -1 0
f 1/1/1 2/2/2 3/3/3
f 1/1/1 3/3/3 4/4/4
f 5/5/5 7/7/7 6/6/6
f 8/8/8 9/9/9 10/10/10
f 8/8/8 10/10/10 11/11/11
f 12/12/12 14/14/14 13/13/13
f 15/15/15 16/16/16 17/17/17
f 15/15/15 17/17/17 18/18/18
f 19/19/19 21/21/21 20/20/20
f 22/22/22 23/23/23 24/24/24
f 22/22/22 24/24/24 25/25/25
f 26/26/26 28/28/28 27/27/27
f 29/29/29 30/30/30 31/31/31
f 29/29/29 31/31/31 32/32/32
f 33/33/33 35/35/35 34/34/34
f 36/36/36 37/37/37 38/38/38
f 36/36/36 38/38/38 39/39/39
f 40/40/40 42/42/42 41/41/41
f 43/43/43 44/44/44 45/45/45
f 43/43/43 45/45/45 46/46/46
f 47/47/47 49/49/49 48/48/48
f 50/50/50 51/51/51 52/52/52
f 50/50/50 52/52/52 53/53/53
f 54/54/54 56/56/56 55/55/55
f 57/57/57 58/58/58 59/59/59
f 60/60/60 61/61/61 62/62/62
f 63/63/63 64/64/64 65/65/65
f 66/66/66 67/67/67 68/68/68
f 69/69/69 70/70/70 71/71/71
f 72/72/72 73/73/73 74/74/74
f 75/75/75 76/76/76 77/77/77
f 78/78/78 79/79/79 80/80/80
