v 0.48 -0.08 0
v 0.48 0.08 0
v 0.447586656 0.08 0.173395991
v 0.447586656 -0.08 0.173395991
v 0 0.08 0
v 0.48 0.08 0
v 0.447586656 0.08 0.173395991
v 0.447586656 -0.08 0.173395991
v 0.447586656 0.08 0.173395991
v 0.354724258 0.08 0.323373884
v 0.354724258 -0.08 0.323373884
v 0 0.08 0
v 0.447586656 0.08 0.173395991
v 0.354724258 0.08 0.323373884
v 0.354724258 -0.08 0.323373884
v 0.354724258 0.08 0.323373884
v 0.2139544 0.08 0.42967838
v 0.2139544 -0.08 0.42967838
v 0 0.08 0
v 0.354724258 0.08 0.323373884
v 0.2139544 0.08 0.42967838
v 0.2139544 -0.08 0.42967838
v 0.2139544 0.08 0.42967838
v 0.0442888178 0.08 0.4779524
v 0.0442888178 -0.08 0.4779524
v 0 0.08 0
v 0.2139544 0.08 0.42967838
v 0.0442888178 0.08 0.4779524
v 0.0442888178 -0.08 0.4779524
v 0.0442888178 0.08 0.4779524
v -0.131358266 0.08 0.46167627
v -0.131358266 -0.08 0.46167627
v 0 0.08 0
v 0.0442888178 0.08 0.4779524
v -0.131358266 0.08 0.46167627
v -0.131358266 -0.08 0.46167627
v -0.131358266 0.08 0.46167627
v -0.289264649 0.08 0.383048236
v -0.289264649 -0.08 0.383048236
v 0 0.08 0
v -0.131358266 0.08 0.46167627
v -0.289264649 0.08 0.383048236
v -0.289264649 -0.08 0.383048236
v -0.289264649 0.08 0.383048236
v -0.408104241 0.08 0.252687424
v -0.408104241 -0.08 0.252687424
v 0 0.08 0
v -0.289264649 0.08 0.383048236
v -0.408104241 0.08 0.252687424
v -0.408104241 -0.08 0.252687424
v -0.408104241 0.08 0.252687424
v -0.4718271 0.08 0.08819977
v -0.4718271 -0.08 0.08819977
v 0 0.08 0
v -0.408104241 0.08 0.252687424
v -0.4718271 0.08 0.08819977
v -0.4718271 -0.08 0.08819977
v -0.4718271 0.08 0.08819977
v -0.47182706 0.08 -0.0881998539
v -0.47182706 -0.08 -0.0881998539
v 0 0.08 0
v -0.4718271 0.08 0.08819977
v -0.47182706 0.08 -0.0881998539
v -0.47182706 -0.08 -0.0881998539
v -0.47182706 0.08 -0.0881998539
v -0.408104181 0.08 -0.252687484
v -0.408104181 -0.08 -0.252687484
v 0 0.08 0
v -0.47182706 0.08 -0.0881998539
v -0.408104181 0.08 -0.252687484
v -0.408104181 -0.08 -0.252687484
v -0.408104181 0.08 -0.252687484
v -0.289264649 0.08 -0.3830482
v -0.289264649 -0.08 -0.3830482
v 0 0.08 0
v -0.408104181 0.08 -0.252687484
v -0.289264649 0.08 -0.3830482
v -0.289264649 -0.08 -0.3830482
v -0.289264649 0.08 -0.3830482
v -0.131358191 0.08 -0.4616763
v -0.131358191 -0.08 -0.4616763
v 0 0.08 0
v -0.289264649 0.08 -0.3830482
v -0.131358191 0.08 -0.4616763
v -0.131358191 -0.08 -0.4616763
v -0.131358191 0.08 -0.4616763
v 0.0442889556 0.08 -0.4779524
v 0.0442889556 -0.08 -0.4779524
v 0 0.08 0
v -0.131358191 0.08 -0.4616763
v 0.0442889556 0.08 -0.4779524
v 0.0442889556 -0.08 -0.4779524
v 0.0442889556 0.08 -0.4779524
v 0.213954419 0.08 -0.42967838
v 0.213954419 -0.08 -0.42967838
v 0 0.08 0
v 0.0442889556 0.08 -0.4779524
v 0.213954419 0.08 -0.42967838
v 0.213954419 -0.08 -0.42967838
v 0.213954419 0.08 -0.42967838
v 0.354724348 0.08 -0.3233738
v 0.354724348 -0.08 -0.3233738
v 0 0.08 0
v 0.213954419 0.08 -0.42967838
v 0.354724348 0.08 -0.3233738
v 0.354724348 -0.08 -0.3233738
v 0.354724348 0.08 -0.3233738
v 0.447586656 0.08 -0.173396
v 0.447586656 -0.08 -0.173396
v 0 0.08 0
v 0.354724348 0.08 -0.3233738
v 0.447586656 0.08 -0.173396
v 0.447586656 -0.08 -0.173396
v 0.447586656 0.08 -0.173396
v 0.48 0.08 8.392586E-08
v 0.48 -0.08 8.392586E-08
v 0 0.08 0
v 0.447586656 0.08 -0.173396
v 0.48 0.08 8.392586E-08
v 0 -0.08 0
v 0.48 -0.08 0
v 0.447586656 -0.08 0.173395991
v 0 -0.08 0
v 0.447586656 -0.08 0.173395991
v 0.354724258 -0.08 0.323373884
v 0 -0.08 0
v 0.354724258 -0.08 0.323373884
v 0.2139544 -0.08 0.42967838
v 0 -0.08 0
v 0.2139544 -0.08 0.42967838
v 0.0442888178 -0.08 0.4779524
v 0 -0.08 0
v 0.0442888178 -0.08 0.4779524
v -0.131358266 -0.08 0.46167627
v 0 -0.08 0
v -0.131358266 -0.08 0.46167627
v -0.289264649 -0.08 0.383048236
v 0 -0.08 0
v -0.289264649 -0.08 0.383048236
v -0.408104241 -0.08 0.252687424
v 0 -0.08 0
v -0.408104241 -0.08 0.252687424
v -0.4718271 -0.08 0.08819977
v 0 -0.08 0
v -0.4718271 -0.08 0.08819977
v -0.47182706 -0.08 -0.0881998539
v 0 -0.08 0
v -0.47182706 -0.08 -0.0881998539
v -0.408104181 -0.08 -0.252687484
v 0 -0.08 0
v -0.408104181 -0.08 -0.252687484
v -0.289264649 -0.08 -0.3830482
v 0 -0.08 0
v -0.289264649 -0.08 -0.3830482
v -0.131358191 -0.08 -0.4616763
v 0 -0.08 0
v -0.131358191 -0.08 -0.4616763
v 0.0442889556 -0.08 -0.4779524
v 0 -0.08 0
v 0.0442889556 -0.08 -0.4779524
v 0.213954419 -0.08 -0.42967838
v 0 -0.08 0
v 0.213954419 -0.08 -0.42967838
v 0.354724348 -0.08 -0.3233738
v 0 -0.08 0
v 0.354724348 -0.08 -0.3233738
v 0.447586656 -0.08 -0.173396
v 0 -0.08 0
v 0.447586656 -0.08 -0.173396
v 0.48 -0.08 8.392586E-08
v 0.36 0.0749999955 0
v 0.36 0.164999992 0
v 0.3243488 0.164999992 0.156198159
v 0.3243488 0.0749999955 0.156198159
v 0 0.164999992 0
v 0.36 0.164999992 0
v 0.3243488 0.164999992 0.156198159
v 0.3243488 0.0749999955 0.156198159
v 0.3243488 0.164999992 0.156198159
v 0.22445634 0.164999992 0.281459361
v 0.22445634 0.0749999955 0.281459361
v 0 0.164999992 0
v 0.3243488 0.164999992 0.156198159
v 0.22445634 0.164999992 0.281459361
v 0.22445634 0.0749999955 0.281459361
v 0.22445634 0.164999992 0.281459361
v 0.08010751 0.164999992 0.350974053
v 0.08010751 0.0749999955 0.350974053
v 0 0.164999992 0
v 0.22445634 0.164999992 0.281459361
v 0.08010751 0.164999992 0.350974053
v 0.08010751 0.0749999955 0.350974053
v 0.08010751 0.164999992 0.350974053
v -0.08010755 0.164999992 0.350974053
v -0.08010755 0.0749999955 0.350974053
v 0 0.164999992 0
v 0.08010751 0.164999992 0.350974053
v -0.08010755 0.164999992 0.350974053
v -0.08010755 0.0749999955 0.350974053
v -0.08010755 0.164999992 0.350974053
v -0.22445634 0.164999992 0.281459361
v -0.22445634 0.0749999955 0.281459361
v 0 0.164999992 0
v -0.08010755 0.164999992 0.350974053
v -0.22445634 0.164999992 0.281459361
v -0.22445634 0.0749999955 0.281459361
v -0.22445634 0.164999992 0.281459361
v -0.3243488 0.164999992 0.1561981
v -0.3243488 0.0749999955 0.1561981
v 0 0.164999992 0
v -0.22445634 0.164999992 0.281459361
v -0.3243488 0.164999992 0.1561981
v -0.3243488 0.0749999955 0.1561981
v -0.3243488 0.164999992 0.1561981
v -0.36 0.164999992 -3.14722E-08
v -0.36 0.0749999955 -3.14722E-08
v 0 0.164999992 0
v -0.3243488 0.164999992 0.1561981
v -0.36 0.164999992 -3.14722E-08
v -0.36 0.0749999955 -3.14722E-08
v -0.36 0.164999992 -3.14722E-08
v -0.3243488 0.164999992 -0.156198159
v -0.3243488 0.0749999955 -0.156198159
v 0 0.164999992 0
v -0.36 0.164999992 -3.14722E-08
v -0.3243488 0.164999992 -0.156198159
v -0.3243488 0.0749999955 -0.156198159
v -0.3243488 0.164999992 -0.156198159
v -0.224456266 0.164999992 -0.2814594
v -0.224456266 0.0749999955 -0.2814594
v 0 0.164999992 0
v -0.3243488 0.164999992 -0.156198159
v -0.224456266 0.164999992 -0.2814594
v -0.224456266 0.0749999955 -0.2814594
v -0.224456266 0.164999992 -0.2814594
v -0.08010756 0.164999992 -0.350974053
v -0.08010756 0.0749999955 -0.350974053
v 0 0.164999992 0
v -0.224456266 0.164999992 -0.2814594
v -0.08010756 0.164999992 -0.350974053
v -0.08010756 0.0749999955 -0.350974053
v -0.08010756 0.164999992 -0.350974053
v 0.08010758 0.164999992 -0.350974053
v 0.08010758 0.0749999955 -0.350974053
v 0 0.164999992 0
v -0.08010756 0.164999992 -0.350974053
v 0.08010758 0.164999992 -0.350974053
v 0.08010758 0.0749999955 -0.350974053
v 0.08010758 0.164999992 -0.350974053
v 0.224456415 0.164999992 -0.2814593
v 0.224456415 0.0749999955 -0.2814593
v 0 0.164999992 0
v 0.08010758 0.164999992 -0.350974053
v 0.224456415 0.164999992 -0.2814593
v 0.224456415 0.0749999955 -0.2814593
v 0.224456415 0.164999992 -0.2814593
v 0.3243488 0.164999992 -0.156198159
v 0.3243488 0.0749999955 -0.156198159
v 0 0.164999992 0
v 0.224456415 0.164999992 -0.2814593
v 0.3243488 0.164999992 -0.156198159
v 0.3243488 0.0749999955 -0.156198159
v 0.3243488 0.164999992 -0.156198159
v 0.36 0.164999992 6.29444E-08
v 0.36 0.0749999955 6.29444E-08
v 0 0.164999992 0
v 0.3243488 0.164999992 -0.156198159
v 0.36 0.164999992 6.29444E-08
v 0 0.0749999955 0
v 0.36 0.0749999955 0
v 0.3243488 0.0749999955 0.156198159
v 0 0.0749999955 0
v 0.3243488 0.0749999955 0.156198159
v 0.22445634 0.0749999955 0.281459361
v 0 0.0749999955 0
v 0.22445634 0.0749999955 0.281459361
v 0.08010751 0.0749999955 0.350974053
v 0 0.0749999955 0
v 0.08010751 0.0749999955 0.350974053
v -0.08010755 0.0749999955 0.350974053
v 0 0.0749999955 0
v -0.08010755 0.0749999955 0.350974053
v -0.22445634 0.0749999955 0.281459361
v 0 0.0749999955 0
v -0.22445634 0.0749999955 0.281459361
v -0.3243488 0.0749999955 0.1561981
v 0 0.0749999955 0
v -0.3243488 0.0749999955 0.1561981
v -0.36 0.0749999955 -3.14722E-08
v 0 0.0749999955 0
v -0.36 0.0749999955 -3.14722E-08
v -0.3243488 0.0749999955 -0.156198159
v 0 0.0749999955 0
v -0.3243488 0.0749999955 -0.156198159
v -0.224456266 0.0749999955 -0.2814594
v 0 0.0749999955 0
v -0.224456266 0.0749999955 -0.2814594
v -0.08010756 0.0749999955 -0.350974053
v 0 0.0749999955 0
v -0.08010756 0.0749999955 -0.350974053
v 0.08010758 0.0749999955 -0.350974053
v 0 0.0749999955 0
v 0.08010758 0.0749999955 -0.350974053
v 0.224456415 0.0749999955 -0.2814593
v 0 0.0749999955 0
v 0.224456415 0.0749999955 -0.2814593
v 0.3243488 0.0749999955 -0.156198159
v 0 0.0749999955 0
v 0.3243488 0.0749999955 -0.156198159
v 0.36 0.0749999955 6.29444E-08
v -0.17 0.16 -0.17
v -0.17 0.24000001 -0.17
v 0.17 0.24000001 -0.17
v 0.17 0.16 -0.17
v 0.17 0.16 0.17
v 0.17 0.24000001 0.17
v -0.17 0.24000001 0.17
v -0.17 0.16 0.17
v -0.17 0.16 0.17
v -0.17 0.24000001 0.17
v -0.17 0.24000001 -0.17
v -0.17 0.16 -0.17
v 0.17 0.16 -0.17
v 0.17 0.24000001 -0.17
v 0.17 0.24000001 0.17
v 0.17 0.16 0.17
v -0.17 0.24000001 -0.17
v -0.17 0.24000001 0.17
v 0.17 0.24000001 0.17
v 0.17 0.24000001 -0.17
v -0.17 0.16 0.17
v -0.17 0.16 -0.17
v 0.17 0.16 -0.17
v 0.17 0.16 0.17
v -0.1 -0.125 -0.450000018
v -0.1 0.125 -0.450000018
v 0.1 0.125 -0.450000018
v 0.1 -0.125 -0.450000018
v 0.1 -0.125 -0.35
v 0.1 0.125 -0.35
v -0.1 0.125 -0.35
v -0.1 -0.125 -0.35
v -0.1 -0.125 -0.35
v -0.1 0.125 -0.35
v -0.1 0.125 -0.450000018
v -0.1 -0.125 -0.450000018
v 0.1 -0.125 -0.450000018
v 0.1 0.125 -0.450000018
v 0.1 0.125 -0.35
v 0.1 -0.125 -0.35
v -0.1 0.125 -0.450000018
v -0.1 0.125 -0.35
v 0.1 0.125 -0.35
v 0.1 0.125 -0.450000018
v -0.1 -0.125 -0.35
v -0.1 -0.125 -0.450000018
v 0.1 -0.125 -0.450000018
v 0.1 -0.125 -0.35
vt 0.9941406 0.25
vt 0.9941406 0.25
vt 0.9860953 0.338193774
vt 0.9860953 0.338193774
vt 0.875 0.25
vt 0.9941406 0.25
vt 0.9860953 0.338193774
vt 0.9860953 0.338193774
vt 0.9860953 0.338193774
vt 0.963045955 0.414476454
vt 0.963045955 0.414476454
vt 0.875 0.25
vt 0.9860953 0.338193774
vt 0.963045955 0.414476454
vt 0.963045955 0.414476454
vt 0.963045955 0.414476454
vt 0.928105533 0.468545735
vt 0.928105533 0.468545735
vt 0.875 0.25
vt 0.963045955 0.414476454
vt 0.928105533 0.468545735
vt 0.928105533 0.468545735
vt 0.928105533 0.468545735
vt 0.8859929 0.493099183
vt 0.8859929 0.493099183
vt 0.875 0.25
vt 0.928105533 0.468545735
vt 0.8859929 0.493099183
vt 0.8859929 0.493099183
vt 0.8859929 0.493099183
vt 0.8423956 0.4848207
vt 0.8423956 0.4848207
vt 0.875 0.25
vt 0.8859929 0.493099183
vt 0.8423956 0.4848207
vt 0.8423956 0.4848207
vt 0.8423956 0.4848207
vt 0.803201735 0.4448284
vt 0.803201735 0.4448284
vt 0.875 0.25
vt 0.8423956 0.4848207
vt 0.803201735 0.4448284
vt 0.803201735 0.4448284
vt 0.803201735 0.4448284
vt 0.7737046 0.378523469
vt 0.7737046 0.378523469
vt 0.875 0.25
vt 0.803201735 0.4448284
vt 0.7737046 0.378523469
vt 0.7737046 0.378523469
vt 0.7737046 0.378523469
vt 0.757887959 0.294860721
vt 0.757887959 0.294860721
vt 0.875 0.25
vt 0.7737046 0.378523469
vt 0.757887959 0.294860721
vt 0.757887959 0.294860721
vt 0.757887959 0.294860721
vt 0.757887959 0.205139235
vt 0.757887959 0.205139235
vt 0.875 0.25
vt 0.757887959 0.294860721
vt 0.757887959 0.205139235
vt 0.757887959 0.205139235
vt 0.757887959 0.205139235
vt 0.7737046 0.121476494
vt 0.7737046 0.121476494
vt 0.875 0.25
vt 0.757887959 0.205139235
vt 0.7737046 0.121476494
vt 0.7737046 0.121476494
vt 0.7737046 0.121476494
vt 0.803201735 0.0551716
vt 0.803201735 0.0551716
vt 0.875 0.25
vt 0.7737046 0.121476494
vt 0.803201735 0.0551716
vt 0.803201735 0.0551716
vt 0.803201735 0.0551716
vt 0.8423956 0.0151792858
vt 0.8423956 0.0151792858
vt 0.875 0.25
vt 0.803201735 0.0551716
vt 0.8423956 0.0151792858
vt 0.8423956 0.0151792858
vt 0.8423956 0.0151792858
vt 0.885992944 0.006900837
vt 0.885992944 0.006900837
vt 0.875 0.25
vt 0.8423956 0.0151792858
vt 0.885992944 0.006900837
vt 0.885992944 0.006900837
vt 0.885992944 0.006900837
vt 0.928105533 0.03145427
vt 0.928105533 0.03145427
vt 0.875 0.25
vt 0.885992944 0.006900837
vt 0.928105533 0.03145427
vt 0.928105533 0.03145427
vt 0.928105533 0.03145427
vt 0.963046 0.08552358
vt 0.963046 0.08552358
vt 0.875 0.25
vt 0.928105533 0.03145427
vt 0.963046 0.08552358
vt 0.963046 0.08552358
vt 0.963046 0.08552358
vt 0.9860953 0.161806226
vt 0.9860953 0.161806226
vt 0.875 0.25
vt 0.963046 0.08552358
vt 0.9860953 0.161806226
vt 0.9860953 0.161806226
vt 0.9860953 0.161806226
vt 0.9941406 0.25000003
vt 0.9941406 0.25000003
vt 0.875 0.25
vt 0.9860953 0.161806226
vt 0.9941406 0.25000003
vt 0.875 0.25
vt 0.7558594 0.005859375
vt 0.9941406 0.494140625
vt 0.875 0.25
vt 0.7558594 0.005859375
vt 0.9941406 0.494140625
vt 0.875 0.25
vt 0.7558594 0.005859375
vt 0.9941406 0.494140625
vt 0.875 0.25
vt 0.7558594 0.005859375
vt 0.9941406 0.494140625
vt 0.875 0.25
vt 0.7558594 0.005859375
vt 0.9941406 0.494140625
vt 0.875 0.25
vt 0.7558594 0.005859375
vt 0.9941406 0.494140625
vt 0.875 0.25
vt 0.7558594 0.005859375
vt 0.9941406 0.494140625
vt 0.875 0.25
vt 0.7558594 0.005859375
vt 0.9941406 0.494140625
vt 0.875 0.25
vt 0.7558594 0.005859375
vt 0.9941406 0.494140625
vt 0.875 0.25
vt 0.7558594 0.005859375
vt 0.9941406 0.494140625
vt 0.875 0.25
vt 0.7558594 0.005859375
vt 0.9941406 0.494140625
vt 0.875 0.25
vt 0.7558594 0.005859375
vt 0.9941406 0.494140625
vt 0.875 0.25
vt 0.7558594 0.005859375
vt 0.9941406 0.494140625
vt 0.875 0.25
vt 0.7558594 0.005859375
vt 0.9941406 0.494140625
vt 0.875 0.25
vt 0.7558594 0.005859375
vt 0.9941406 0.494140625
vt 0.875 0.25
vt 0.7558594 0.005859375
vt 0.9941406 0.494140625
vt 0.875 0.25
vt 0.7558594 0.005859375
vt 0.9941406 0.494140625
vt 0.244140625 0.75
vt 0.244140625 0.75
vt 0.232342 0.855928659
vt 0.232342 0.855928659
vt 0.125 0.75
vt 0.244140625 0.75
vt 0.232342 0.855928659
vt 0.232342 0.855928659
vt 0.232342 0.855928659
vt 0.199282974 0.940876842
vt 0.199282974 0.940876842
vt 0.125 0.75
vt 0.232342 0.855928659
vt 0.199282974 0.940876842
vt 0.199282974 0.940876842
vt 0.199282974 0.940876842
vt 0.151511267 0.9880195
vt 0.151511267 0.9880195
vt 0.125 0.75
vt 0.199282974 0.940876842
vt 0.151511267 0.9880195
vt 0.151511267 0.9880195
vt 0.151511267 0.9880195
vt 0.09848872 0.9880195
vt 0.09848872 0.9880195
vt 0.125 0.75
vt 0.151511267 0.9880195
vt 0.09848872 0.9880195
vt 0.09848872 0.9880195
vt 0.09848872 0.9880195
vt 0.0507170372 0.940876842
vt 0.0507170372 0.940876842
vt 0.125 0.75
vt 0.09848872 0.9880195
vt 0.0507170372 0.940876842
vt 0.0507170372 0.940876842
vt 0.0507170372 0.940876842
vt 0.0176580064 0.8559286
vt 0.0176580064 0.8559286
vt 0.125 0.75
vt 0.0507170372 0.940876842
vt 0.0176580064 0.8559286
vt 0.0176580064 0.8559286
vt 0.0176580064 0.8559286
vt 0.005859375 0.75
vt 0.005859375 0.75
vt 0.125 0.75
vt 0.0176580064 0.8559286
vt 0.005859375 0.75
vt 0.005859375 0.75
vt 0.005859375 0.75
vt 0.0176580064 0.644071341
vt 0.0176580064 0.644071341
vt 0.125 0.75
vt 0.005859375 0.75
vt 0.0176580064 0.644071341
vt 0.0176580064 0.644071341
vt 0.0176580064 0.644071341
vt 0.05071706 0.559123158
vt 0.05071706 0.559123158
vt 0.125 0.75
vt 0.0176580064 0.644071341
vt 0.05071706 0.559123158
vt 0.05071706 0.559123158
vt 0.05071706 0.559123158
vt 0.09848871 0.5119805
vt 0.09848871 0.5119805
vt 0.125 0.75
vt 0.05071706 0.559123158
vt 0.09848871 0.5119805
vt 0.09848871 0.5119805
vt 0.09848871 0.5119805
vt 0.1515113 0.5119805
vt 0.1515113 0.5119805
vt 0.125 0.75
vt 0.09848871 0.5119805
vt 0.1515113 0.5119805
vt 0.1515113 0.5119805
vt 0.1515113 0.5119805
vt 0.199282989 0.5591232
vt 0.199282989 0.5591232
vt 0.125 0.75
vt 0.1515113 0.5119805
vt 0.199282989 0.5591232
vt 0.199282989 0.5591232
vt 0.199282989 0.5591232
vt 0.232342 0.644071341
vt 0.232342 0.644071341
vt 0.125 0.75
vt 0.199282989 0.5591232
vt 0.232342 0.644071341
vt 0.232342 0.644071341
vt 0.232342 0.644071341
vt 0.244140625 0.75
vt 0.244140625 0.75
vt 0.125 0.75
vt 0.232342 0.644071341
vt 0.244140625 0.75
vt 0.125 0.75
vt 0.005859375 0.5058594
vt 0.244140625 0.9941406
vt 0.125 0.75
vt 0.005859375 0.5058594
vt 0.244140625 0.9941406
vt 0.125 0.75
vt 0.005859375 0.5058594
vt 0.244140625 0.9941406
vt 0.125 0.75
vt 0.005859375 0.5058594
vt 0.244140625 0.9941406
vt 0.125 0.75
vt 0.005859375 0.5058594
vt 0.244140625 0.9941406
vt 0.125 0.75
vt 0.005859375 0.5058594
vt 0.244140625 0.9941406
vt 0.125 0.75
vt 0.005859375 0.5058594
vt 0.244140625 0.9941406
vt 0.125 0.75
vt 0.005859375 0.5058594
vt 0.244140625 0.9941406
vt 0.125 0.75
vt 0.005859375 0.5058594
vt 0.244140625 0.9941406
vt 0.125 0.75
vt 0.005859375 0.5058594
vt 0.244140625 0.9941406
vt 0.125 0.75
vt 0.005859375 0.5058594
vt 0.244140625 0.9941406
vt 0.125 0.75
vt 0.005859375 0.5058594
vt 0.244140625 0.9941406
vt 0.125 0.75
vt 0.005859375 0.5058594
vt 0.244140625 0.9941406
vt 0.125 0.75
vt 0.005859375 0.5058594
vt 0.244140625 0.9941406
vt 0.005859375 0.005859375
vt 0.005859375 0.494140625
vt 0.244140625 0.494140625
vt 0.244140625 0.005859375
vt 0.005859375 0.005859375
vt 0.005859375 0.494140625
vt 0.244140625 0.494140625
vt 0.244140625 0.005859375
vt 0.005859375 0.005859375
vt 0.005859375 0.494140625
vt 0.244140625 0.494140625
vt 0.244140625 0.005859375
vt 0.005859375 0.005859375
vt 0.005859375 0.494140625
vt 0.244140625 0.494140625
vt 0.244140625 0.005859375
vt 0.005859375 0.005859375
vt 0.005859375 0.494140625
vt 0.244140625 0.494140625
vt 0.244140625 0.005859375
vt 0.005859375 0.005859375
vt 0.005859375 0.494140625
vt 0.244140625 0.494140625
vt 0.244140625 0.005859375
vt 0.5058594 0.005859375
vt 0.5058594 0.494140625
vt 0.7441406 0.494140625
vt 0.7441406 0.005859375
vt 0.5058594 0.005859375
vt 0.5058594 0.494140625
vt 0.7441406 0.494140625
vt 0.7441406 0.005859375
vt 0.5058594 0.005859375
vt 0.5058594 0.494140625
vt 0.7441406 0.494140625
vt 0.7441406 0.005859375
vt 0.5058594 0.005859375
vt 0.5058594 0.494140625
vt 0.7441406 0.494140625
vt 0.7441406 0.005859375
vt 0.5058594 0.005859375
vt 0.5058594 0.494140625
vt 0.7441406 0.494140625
vt 0.7441406 0.005859375
vt 0.5058594 0.005859375
vt 0.5058594 0.494140625
vt 0.7441406 0.494140625
vt 0.7441406 0.005859375
vn 0.9829731 0 0.183749542
vn 0.9829731 0 0.183749542
vn 0.9829731 0 0.183749542
vn 0.9829731 0 0.183749542
vn 0 0.99999994 0
vn 0 0.99999994 0
vn 0 0.99999994 0
vn 0.8502171 0 0.5264322
vn 0.8502171 0 0.5264322
vn 0.8502171 0 0.5264322
vn 0.8502171 0 0.5264322
vn 0 1 0
vn 0 1 0
vn 0 1 0
vn 0.6026348 0 0.7980171
vn 0.6026348 0 0.7980171
vn 0.6026348 0 0.7980171
vn 0.6026348 0 0.7980171
vn 0 1 0
vn 0 1 0
vn 0 1 0
vn 0.273662925 0 0.961825669
vn 0.273662925 0 0.961825669
vn 0.273662925 0 0.961825669
vn 0.273662925 0 0.961825669
vn 0 0.99999994 0
vn 0 0.99999994 0
vn 0 0.99999994 0
vn -0.0922684744 0 0.9957341
vn -0.0922684744 0 0.9957341
vn -0.0922684744 0 0.9957341
vn -0.0922684744 0 0.9957341
vn 0 1 0
vn 0 1 0
vn 0 1 0
vn -0.445738345 0 0.8951633
vn -0.445738345 0 0.8951633
vn -0.445738345 0 0.8951633
vn -0.445738345 0 0.8951633
vn 0 1 0
vn 0 1 0
vn 0 1 0
vn -0.739008844 0 0.6736956
vn -0.739008844 0 0.6736956
vn -0.739008844 0 0.6736956
vn -0.739008844 0 0.6736956
vn 0 0.99999994 0
vn 0 0.99999994 0
vn 0 0.99999994 0
vn -0.9324722 0 0.3612416
vn -0.9324722 0 0.3612416
vn -0.9324722 0 0.3612416
vn -0.9324722 0 0.3612416
vn 0 0.99999994 0
vn 0 0.99999994 0
vn 0 0.99999994 0
vn -1 0 -1.68947764E-07
vn -1 0 -1.68947764E-07
vn -1 0 -1.68947764E-07
vn -1 0 -1.68947764E-07
vn 0 1 0
vn 0 1 0
vn 0 1 0
vn -0.932472169 0 -0.361241817
vn -0.932472169 0 -0.361241817
vn -0.932472169 0 -0.361241817
vn -0.932472169 0 -0.361241817
vn 0 1 0
vn 0 1 0
vn 0 1 0
vn -0.739008844 0 -0.673695743
vn -0.739008844 0 -0.673695743
vn -0.739008844 0 -0.673695743
vn -0.739008844 0 -0.673695743
vn 0 1 0
vn 0 1 0
vn 0 1 0
vn -0.445738435 0 -0.895163238
vn -0.445738435 0 -0.895163238
vn -0.445738435 0 -0.895163238
vn -0.445738435 0 -0.895163238
vn 0 1 0
vn 0 1 0
vn 0 1 0
vn -0.0922682956 0 -0.9957342
vn -0.0922682956 0 -0.9957342
vn -0.0922682956 0 -0.9957342
vn -0.0922682956 0 -0.9957342
vn 0 1 0
vn 0 1 0
vn 0 1 0
vn 0.273663133 0 -0.9618256
vn 0.273663133 0 -0.9618256
vn 0.273663133 0 -0.9618256
vn 0.273663133 0 -0.9618256
vn 0 1 0
vn 0 1 0
vn 0 1 0
vn 0.602634847 0 -0.798017
vn 0.602634847 0 -0.798017
vn 0.602634847 0 -0.798017
vn 0.602634847 0 -0.798017
vn 0 1 0
vn 0 1 0
vn 0 1 0
vn 0.850217164 0 -0.526432157
vn 0.850217164 0 -0.526432157
vn 0.850217164 0 -0.526432157
vn 0.850217164 0 -0.526432157
vn 0 0.99999994 0
vn 0 0.99999994 0
vn 0 0.99999994 0
vn 0.9829731 0 -0.183749422
vn 0.9829731 0 -0.183749422
vn 0.9829731 0 -0.183749422
vn 0.9829731 0 -0.183749422
vn 0 1 0
vn 0 1 0
vn 0 1 0
vn 0 -0.99999994 0
vn 0 -0.99999994 0
vn 0 -0.99999994 0
vn 0 -1 0
vn 0 -1 0
vn 0 -1 0
vn 0 -1 0
vn 0 -1 0
vn 0 -1 0
vn 0 -0.99999994 0
vn 0 -0.99999994 0
vn 0 -0.99999994 0
vn 0 -1 0
vn 0 -1 0
vn 0 -1 0
vn 0 -1 0
vn 0 -1 0
vn 0 -1 0
vn 0 -0.99999994 0
vn 0 -0.99999994 0
vn 0 -0.99999994 0
vn 0 -0.99999994 0
vn 0 -0.99999994 0
vn 0 -0.99999994 0
vn 0 -1 0
vn 0 -1 0
vn 0 -1 0
vn 0 -1 0
vn 0 -1 0
vn 0 -1 0
vn 0 -1 0
vn 0 -1 0
vn 0 -1 0
vn 0 -1 0
vn 0 -1 0
vn 0 -1 0
vn 0 -1 0
vn 0 -1 0
vn 0 -1 0
vn 0 -1 0
vn 0 -1 0
vn 0 -1 0
vn 0 -1 0
vn 0 -1 0
vn 0 -1 0
vn 0 -0.99999994 0
vn 0 -0.99999994 0
vn 0 -0.99999994 0
vn 0 -1 0
vn 0 -1 0
vn 0 -1 0
vn 0.9749279 0 0.222520918
vn 0.9749279 0 0.222520918
vn 0.9749279 0 0.222520918
vn 0.9749279 0 0.222520918
vn 0 1 0
vn 0 1 0
vn 0 1 0
vn 0.7818315 0 0.623489738
vn 0.7818315 0 0.623489738
vn 0.7818315 0 0.623489738
vn 0.7818315 0 0.623489738
vn 0 1 0
vn 0 1 0
vn 0 1 0
vn 0.433883518 0 0.9009689
vn 0.433883518 0 0.9009689
vn 0.433883518 0 0.9009689
vn 0.433883518 0 0.9009689
vn 0 1 0
vn 0 1 0
vn 0 1 0
vn 0 0 0.99999994
vn 0 0 0.99999994
vn 0 0 0.99999994
vn 0 0 0.99999994
vn 0 1 0
vn 0 1 0
vn 0 1 0
vn -0.4338836 0 0.9009689
vn -0.4338836 0 0.9009689
vn -0.4338836 0 0.9009689
vn -0.4338836 0 0.9009689
vn 0 1 0
vn 0 1 0
vn 0 1 0
vn -0.781831741 0 0.6234896
vn -0.781831741 0 0.6234896
vn -0.781831741 0 0.6234896
vn -0.781831741 0 0.6234896
vn 0 1 0
vn 0 1 0
vn 0 1 0
vn -0.9749279 0 0.222520962
vn -0.9749279 0 0.222520962
vn -0.9749279 0 0.222520962
vn -0.9749279 0 0.222520962
vn 0 1 0
vn 0 1 0
vn 0 1 0
vn -0.9749279 0 -0.222520962
vn -0.9749279 0 -0.222520962
vn -0.9749279 0 -0.222520962
vn -0.9749279 0 -0.222520962
vn 0 1 0
vn 0 1 0
vn 0 1 0
vn -0.7818314 0 -0.62349
vn -0.7818314 0 -0.62349
vn -0.7818314 0 -0.62349
vn -0.7818314 0 -0.62349
vn 0 1 0
vn 0 1 0
vn 0 1 0
vn -0.433883637 0 -0.9009689
vn -0.433883637 0 -0.9009689
vn -0.433883637 0 -0.9009689
vn -0.433883637 0 -0.9009689
vn 0 1 0
vn 0 1 0
vn 0 1 0
vn 0 0 -1
vn 0 0 -1
vn 0 0 -1
vn 0 0 -1
vn 0 1 0
vn 0 1 0
vn 0 1 0
vn 0.433883846 0 -0.9009688
vn 0.433883846 0 -0.9009688
vn 0.433883846 0 -0.9009688
vn 0.433883846 0 -0.9009688
vn 0 1 0
vn 0 1 0
vn 0 1 0
vn 0.781831563 0 -0.6234896
vn 0.781831563 0 -0.6234896
vn 0.781831563 0 -0.6234896
vn 0.781831563 0 -0.6234896
vn 0 1 0
vn 0 1 0
vn 0 1 0
vn 0.974927843 0 -0.222520813
vn 0.974927843 0 -0.222520813
vn 0.974927843 0 -0.222520813
vn 0.974927843 0 -0.222520813
vn 0 1 0
vn 0 1 0
vn 0 1 0
vn 0 -1 0
vn 0 -1 0
vn 0 -1 0
vn 0 -1 0
vn 0 -1 0
vn 0 -1 0
vn 0 -1 0
vn 0 -1 0
vn 0 -1 0
vn 0 -1 0
vn 0 -1 0
vn 0 -1 0
vn 0 -1 0
vn 0 -1 0
vn 0 -1 0
vn 0 -1 0
vn 0 -1 0
vn 0 -1 0
vn 0 -1 0
vn 0 -1 0
vn 0 -1 0
vn 0 -1 0
vn 0 -1 0
vn 0 -1 0
vn 0 -1 0
vn 0 -1 0
vn 0 -1 0
vn 0 -1 0
vn 0 -1 0
vn 0 -1 0
vn 0 -1 0
vn 0 -1 0
vn 0 -1 0
vn 0 -1 0
vn 0 -1 0
vn 0 -1 0
vn 0 -1 0
vn 0 -1 0
vn 0 -1 0
vn 0 -1 0
vn 0 -1 0
vn 0 -1 0
vn 0 0 -1
vn 0 0 -1
vn 0 0 -1
vn 0 0 -1
vn 0 0 1
vn 0 0 1
vn 0 0 1
vn 0 0 1
vn -1 0 0
vn -1 0 0
vn -1 0 0
vn -1 0 0
vn 1 0 0
vn 1 0 0
vn 1 0 0
vn 1 0 0
vn 0 1 0
vn 0 1 0
vn 0 1 0
vn 0 1 0
vn 0 -1 0
vn 0 -1 0
vn 0 -1 0
vn 0 -1 0
vn 0 0 -1
vn 0 0 -1
vn 0 0 -1
vn 0 0 -1
vn 0 0 1
vn 0 0 1
vn 0 0 1
vn 0 0 1
vn -1 0 0
vn -1 0 0
vn -1 0 0
vn -1 0 0
vn 1 0 0
vn 1 0 0
vn 1 0 0
vn 1 0 0
vn 0 1 0
vn 0 1 0
vn 0 1 0
vn 0 1 0
vn 0 -1 0
vn 0 -1 0
vn 0 -1 0
vn 0 -1 0
f 1/1/1 2/2/2 3/3/3
f 1/1/1 3/3/3 4/4/4
f 5/5/5 7/7/7 6/6/6
f 8/8/8 9/9/9 10/10/10
f 8/8/8 10/10/10 11/11/11
f 12/12/12 14/14/14 13/13/13
f 15/15/15 16/16/16 17/17/17
f 15/15/15 17/17/17 18/18/18
f 19/19/19 21/21/21 20/20/20
f 22/22/22 23/23/23 24/24/24
f 22/22/22 24/24/24 25/25/25
f 26/26/26 28/28/28 27/27/27
f 29/29/29 30/30/30 31/31/31
f 29/29/29 31/31/31 32/32/32
f 33/33/33 35/35/35 34/34/34
f 36/36/36 37/37/37 38/38/38
f 36/36/36 38/38/38 39/39/39
f 40/40/40 42/42/42 41/41/41
f 43/43/43 44/44/44 45/45/45
f 43/43/43 45/45/45 46/46/46
f 47/47/47 49/49/49 48/48/48
f 50/50/50 51/51/51 52/52/52
f 50/50/50 52/52/52 53/53/53
f 54/54/54 56/56/56 55/55/55
f 57/57/57 58/58/58 59/59/59
f 57/57/57 59/59/59 60/60/60
f 61/61/61 63/63/63 62/62/62
f 64/64/64 65/65/65 66/66/66
f 64/64/64 66/66/66 67/67/67
f 68/68/68 70/70/70 69/69/69
f 71/71/71 72/72/72 73/73/73
f 71/71/71 73/73/73 74/74/74
f 75/75/75 77/77/77 76/76/76
f 78/78/78 79/79/79 80/80/80
f 78/78/78 80/80/80 81/81/81
f 82/82/82 84/84/84 83/83/83
f 85/85/85 86/86/86 87/87/87
f 85/85/85 87/87/87 88/88/88
f 89/89/89 91/91/91 90/90/90
f 92/92/92 93/93/93 94/94/94
f 92/92/92 94/94/94 95/95/95
f 96/96/96 98/98/98 97/97/97
f 99/99/99 100/100/100 101/101/101
f 99/99/99 101/101/101 102/102/102
f 103/103/103 105/105/105 104/104/104
f 106/106/106 107/107/107 108/108/108
f 106/106/106 108/108/108 109/109/109
f 110/110/110 112/112/112 111/111/111
f 113/113/113 114/114/114 115/115/115
f 113/113/113 115/115/115 116/116/116
f 117/117/117 119/119/119 118/118/118
f 120/120/120 121/121/121 122/122/122
f 123/123/123 124/124/124 125/125/125
f 126/126/126 127/127/127 128/128/128
f 129/129/129 130/130/130 131/131/131
f 132/132/132 133/133/133 134/134/134
f 135/135/135 136/136/136 137/137/137
f 138/138/138 139/139/139 140/140/140
f 141/141/141 142/142/142 143/143/143
f 144/144/144 145/145/145 146/146/146
f 147/147/147 148/148/148 149/149/149
f 150/150/150 151/151/151 152/152/152
f 153/153/153 154/154/154 155/155/155
f 156/156/156 157/157/157 158/158/158
f 159/159/159 160/160/160 161/161/161
f 162/162/162 163/163/163 164/164/164
f 165/165/165 166/166/166 167/167/167
f 168/168/168 169/169/169 170/170/170
f 171/171/171 172/172/172 173/173/173
f 171/171/171 173/173/173 174/174/174
f 175/175/175 177/177/177 176/176/176
f 178/178/178 179/179/179 180/180/180
f 178/178/178 180/180/180 181/181/181
f 182/182/182 184/184/184 183/183/183
f 185/185/185 186/186/186 187/187/187
f 185/185/185 187/187/187 188/188/188
f 189/189/189 191/191/191 190/190/190
f 192/192/192 193/193/193 194/194/194
f 192/192/192 194/194/194 195/195/195
f 196/196/196 198/198/198 197/197/197
f 199/199/199 200/200/200 201/201/201
f 199/199/199 201/201/201 202/202/202
f 203/203/203 205/205/205 204/204/204
f 206/206/206 207/207/207 208/208/208
f 206/206/206 208/208/208 209/209/209
f 210/210/210 212/212/212 211/211/211
f 213/213/213 214/214/214 215/215/215
f 213/213/213 215/215/215 216/216/216
f 217/217/217 219/219/219 218/218/218
f 220/220/220 221/221/221 222/222/222
f 220/220/220 222/222/222 223/223/223
f 224/224/224 226/226/226 225/225/225
f 227/227/227 228/228/228 229/229/229
f 227/227/227 229/229/229 230/230/230
f 231/231/231 233/233/233 232/232/232
f 234/234/234 235/235/235 236/236/236
f 234/234/234 236/236/236 237/237/237
f 238/238/238 240/240/240 239/239/239
f 241/241/241 242/242/242 243/243/243
f 241/241/241 243/243/243 244/244/244
f 245/245/245 247/247/247 246/246/246
f 248/248/248 249/249/249 250/250/250
f 248/248/248 250/250/250 251/251/251
f 252/252/252 254/254/254 253/253/253
f 255/255/255 256/256/256 257/257/257
f 255/255/255 257/257/257 258/258/258
f 259/259/259 261/261/261 260/260/260
f 262/262/262 263/263/263 264/264/264
f 262/262/262 264/264/264 265/265/265
f 266/266/266 268/268/268 267/267/267
f 269/269/269 270/270/270 271/271/271
f 272/272/272 273/273/273 274/274/274
f 275/275/275 276/276/276 277/277/277
f 278/278/278 279/279/279 280/280/280
f 281/281/281 282/282/282 283/283/283
f 284/284/284 285/285/285 286/286/286
f 287/287/287 288/288/288 289/289/289
f 290/290/290 291/291/291 292/292/292
f 293/293/293 294/294/294 295/295/295
f 296/296/296 297/297/297 298/298/298
f 299/299/299 300/300/300 301/301/301
f 302/302/302 303/303/303 304/304/304
f 305/305/305 306/306/306 307/307/307
f 308/308/308 309/309/309 310/310/310
f 311/311/311 312/312/312 313/313/313
f 311/311/311 313/313/313 314/314/314
f 315/315/315 316/316/316 317/317/317
f 315/315/315 317/317/317 318/318/318
f 319/319/319 320/320/320 321/321/321
f 319/319/319 321/321/321 322/322/322
f 323/323/323 324/324/324 325/325/325
f 323/323/323 325/325/325 326/326/326
f 327/327/327 328/328/328 329/329/329
f 327/327/327 329/329/329 330/330/330
f 331/331/331 332/332/332 333/333/333
f 331/331/331 333/333/333 334/334/334
f 335/335/335 336/336/336 337/337/337
f 335/335/335 337/337/337 338/338/338
f 339/339/339 340/340/340 341/341/341
f 339/339/339 341/341/341 342/342/342
f 343/343/343 344/344/344 345/345/345
f 343/343/343 345/345/345 346/346/346
f 347/347/347 348/348/348 349/349/349
f 347/347/347 349/349/349 350/350/350
f 351/351/351 352/352/352 353/353/353
f 351/351/351 353/353/353 354/354/354
f 355/355/355 356/356/356 357/357/357
f 355/355/355 357/357/357 358/358/358
