v 0.48 -0.08 0
v 0.48 0.08 0
v 0.432465047 0.08 0.2082642
v 0.432465047 -0.08 0.2082642
v 0 0.08 0
v 0.48 0.08 0
v 0.432465047 0.08 0.2082642
v 0.432465047 -0.08 0.2082642
v 0.432465047 0.08 0.2082642
v 0.2992751 0.08 0.3752791
v 0.2992751 -0.08 0.3752791
v 0 0.08 0
v 0.432465047 0.08 0.2082642
v 0.2992751 0.08 0.3752791
v 0.2992751 -0.08 0.3752791
v 0.2992751 0.08 0.3752791
v 0.106810011 0.08 0.4679654
v 0.106810011 -0.08 0.4679654
v 0 0.08 0
v 0.2992751 0.08 0.3752791
v 0.106810011 0.08 0.4679654
v 0.106810011 -0.08 0.4679654
v 0.106810011 0.08 0.4679654
v -0.106810056 0.08 0.4679654
v -0.106810056 -0.08 0.4679654
v 0 0.08 0
v 0.106810011 0.08 0.4679654
v -0.106810056 0.08 0.4679654
v -0.106810056 -0.08 0.4679654
v -0.106810056 0.08 0.4679654
v -0.2992751 0.08 0.3752791
v -0.2992751 -0.08 0.3752791
v 0 0.08 0
v -0.106810056 0.08 0.4679654
v -0.2992751 0.08 0.3752791
v -0.2992751 -0.08 0.3752791
v -0.2992751 0.08 0.3752791
v -0.432465076 0.08 0.208264127
v -0.432465076 -0.08 0.208264127
v 0 0.08 0
v -0.2992751 0.08 0.3752791
v -0.432465076 0.08 0.208264127
v -0.432465076 -0.08 0.208264127
v -0.432465076 0.08 0.208264127
v -0.48 0.08 -4.196293E-08
v -0.48 -0.08 -4.196293E-08
v 0 0.08 0
v -0.432465076 0.08 0.208264127
v -0.48 0.08 -4.196293E-08
v -0.48 -0.08 -4.196293E-08
v -0.48 0.08 -4.196293E-08
v -0.432465047 0.08 -0.2082642
v -0.432465047 -0.08 -0.2082642
v 0 0.08 0
v -0.48 0.08 -4.196293E-08
v -0.432465047 0.08 -0.2082642
v -0.432465047 -0.08 -0.2082642
v -0.432465047 0.08 -0.2082642
v -0.299275 0.08 -0.375279158
v -0.299275 -0.08 -0.375279158
v 0 0.08 0
v -0.432465047 0.08 -0.2082642
v -0.299275 0.08 -0.375279158
v -0.299275 -0.08 -0.375279158
v -0.299275 0.08 -0.375279158
v -0.106810078 0.08 -0.4679654
v -0.106810078 -0.08 -0.4679654
v 0 0.08 0
v -0.299275 0.08 -0.375279158
v -0.106810078 0.08 -0.4679654
v -0.106810078 -0.08 -0.4679654
v -0.106810078 0.08 -0.4679654
v 0.106810093 0.08 -0.4679654
v 0.106810093 -0.08 -0.4679654
v 0 0.08 0
v -0.106810078 0.08 -0.4679654
v 0.106810093 0.08 -0.4679654
v 0.106810093 -0.08 -0.4679654
v 0.106810093 0.08 -0.4679654
v 0.299275219 0.08 -0.375279039
v 0.299275219 -0.08 -0.375279039
v 0 0.08 0
v 0.106810093 0.08 -0.4679654
v 0.299275219 0.08 -0.375279039
v 0.299275219 -0.08 -0.375279039
v 0.299275219 0.08 -0.375279039
v 0.432465047 0.08 -0.2082642
v 0.432465047 -0.08 -0.2082642
v 0 0.08 0
v 0.299275219 0.08 -0.375279039
v 0.432465047 0.08 -0.2082642
v 0.432465047 -0.08 -0.2082642
v 0.432465047 0.08 -0.2082642
v 0.48 0.08 8.392586E-08
v 0.48 -0.08 8.392586E-08
v 0 0.08 0
v 0.432465047 0.08 -0.2082642
v 0.48 0.08 8.392586E-08
v 0 -0.08 0
v 0.48 -0.08 0
v 0.432465047 -0.08 0.2082642
v 0 -0.08 0
v 0.432465047 -0.08 0.2082642
v 0.2992751 -0.08 0.3752791
v 0 -0.08 0
v 0.2992751 -0.08 0.3752791
v 0.106810011 -0.08 0.4679654
v 0 -0.08 0
v 0.106810011 -0.08 0.4679654
v -0.106810056 -0.08 0.4679654
v 0 -0.08 0
v -0.106810056 -0.08 0.4679654
v -0.2992751 -0.08 0.3752791
v 0 -0.08 0
v -0.2992751 -0.08 0.3752791
v -0.432465076 -0.08 0.208264127
v 0 -0.08 0
v -0.432465076 -0.08 0.208264127
v -0.48 -0.08 -4.196293E-08
v 0 -0.08 0
v -0.48 -0.08 -4.196293E-08
v -0.432465047 -0.08 -0.2082642
v 0 -0.08 0
v -0.432465047 -0.08 -0.2082642
v -0.299275 -0.08 -0.375279158
v 0 -0.08 0
v -0.299275 -0.08 -0.375279158
v -0.106810078 -0.08 -0.4679654
v 0 -0.08 0
v -0.106810078 -0.08 -0.4679654
v 0.106810093 -0.08 -0.4679654
v 0 -0.08 0
v 0.106810093 -0.08 -0.4679654
v 0.299275219 -0.08 -0.375279039
v 0 -0.08 0
v 0.299275219 -0.08 -0.375279039
v 0.432465047 -0.08 -0.2082642
v 0 -0.08 0
v 0.432465047 -0.08 -0.2082642
v 0.48 -0.08 8.392586E-08
v 0.36 0.0749999955 0
v 0.36 0.164999992 0
v 0.311769158 0.164999992 0.18
v 0.311769158 0.0749999955 0.18
v 0 0.164999992 0
v 0.36 0.164999992 0
v 0.311769158 0.164999992 0.18
v 0.311769158 0.0749999955 0.18
v 0.311769158 0.164999992 0.18
v 0.179999992 0.164999992 0.3117692
v 0.179999992 0.0749999955 0.3117692
v 0 0.164999992 0
v 0.311769158 0.164999992 0.18
v 0.179999992 0.164999992 0.3117692
v 0.179999992 0.0749999955 0.3117692
v 0.179999992 0.164999992 0.3117692
v -1.57361E-08 0.164999992 0.36
v -1.57361E-08 0.0749999955 0.36
v 0 0.164999992 0
v 0.179999992 0.164999992 0.3117692
v -1.57361E-08 0.164999992 0.36
v -1.57361E-08 0.0749999955 0.36
v -1.57361E-08 0.164999992 0.36
v -0.180000022 0.164999992 0.311769158
v -0.180000022 0.0749999955 0.311769158
v 0 0.164999992 0
v -1.57361E-08 0.164999992 0.36
v -0.180000022 0.164999992 0.311769158
v -0.180000022 0.0749999955 0.311769158
v -0.180000022 0.164999992 0.311769158
v -0.311769158 0.164999992 0.180000022
v -0.311769158 0.0749999955 0.180000022
v 0 0.164999992 0
v -0.180000022 0.164999992 0.311769158
v -0.311769158 0.164999992 0.180000022
v -0.311769158 0.0749999955 0.180000022
v -0.311769158 0.164999992 0.180000022
v -0.36 0.164999992 -3.14722E-08
v -0.36 0.0749999955 -3.14722E-08
v 0 0.164999992 0
v -0.311769158 0.164999992 0.180000022
v -0.36 0.164999992 -3.14722E-08
v -0.36 0.0749999955 -3.14722E-08
v -0.36 0.164999992 -3.14722E-08
v -0.3117691 0.164999992 -0.180000067
v -0.3117691 0.0749999955 -0.180000067
v 0 0.164999992 0
v -0.36 0.164999992 -3.14722E-08
v -0.3117691 0.164999992 -0.180000067
v -0.3117691 0.0749999955 -0.180000067
v -0.3117691 0.164999992 -0.180000067
v -0.179999977 0.164999992 -0.3117692
v -0.179999977 0.0749999955 -0.3117692
v 0 0.164999992 0
v -0.3117691 0.164999992 -0.180000067
v -0.179999977 0.164999992 -0.3117692
v -0.179999977 0.0749999955 -0.3117692
v -0.179999977 0.164999992 -0.3117692
v 4.292957E-09 0.164999992 -0.36
v 4.292957E-09 0.0749999955 -0.36
v 0 0.164999992 0
v -0.179999977 0.164999992 -0.3117692
v 4.292957E-09 0.164999992 -0.36
v 4.292957E-09 0.0749999955 -0.36
v 4.292957E-09 0.164999992 -0.36
v 0.179999977 0.164999992 -0.3117692
v 0.179999977 0.0749999955 -0.3117692
v 0 0.164999992 0
v 4.292957E-09 0.164999992 -0.36
v 0.179999977 0.164999992 -0.3117692
v 0.179999977 0.0749999955 -0.3117692
v 0.179999977 0.164999992 -0.3117692
v 0.311769217 0.164999992 -0.179999918
v 0.311769217 0.0749999955 -0.179999918
v 0 0.164999992 0
v 0.179999977 0.164999992 -0.3117692
v 0.311769217 0.164999992 -0.179999918
v 0.311769217 0.0749999955 -0.179999918
v 0.311769217 0.164999992 -0.179999918
v 0.36 0.164999992 6.29444E-08
v 0.36 0.0749999955 6.29444E-08
v 0 0.164999992 0
v 0.311769217 0.164999992 -0.179999918
v 0.36 0.164999992 6.29444E-08
v 0 0.0749999955 0
v 0.36 0.0749999955 0
v 0.311769158 0.0749999955 0.18
v 0 0.0749999955 0
v 0.311769158 0.0749999955 0.18
v 0.179999992 0.0749999955 0.3117692
v 0 0.0749999955 0
v 0.179999992 0.0749999955 0.3117692
v -1.57361E-08 0.0749999955 0.36
v 0 0.0749999955 0
v -1.57361E-08 0.0749999955 0.36
v -0.180000022 0.0749999955 0.311769158
v 0 0.0749999955 0
v -0.180000022 0.0749999955 0.311769158
v -0.311769158 0.0749999955 0.180000022
v 0 0.0749999955 0
v -0.311769158 0.0749999955 0.180000022
v -0.36 0.0749999955 -3.14722E-08
v 0 0.0749999955 0
v -0.36 0.0749999955 -3.14722E-08
v -0.3117691 0.0749999955 -0.180000067
v 0 0.0749999955 0
v -0.3117691 0.0749999955 -0.180000067
v -0.179999977 0.0749999955 -0.3117692
v 0 0.0749999955 0
v -0.179999977 0.0749999955 -0.3117692
v 4.292957E-09 0.0749999955 -0.36
v 0 0.0749999955 0
v 4.292957E-09 0.0749999955 -0.36
v 0.179999977 0.0749999955 -0.3117692
v 0 0.0749999955 0
v 0.179999977 0.0749999955 -0.3117692
v 0.311769217 0.0749999955 -0.179999918
v 0 0.0749999955 0
v 0.311769217 0.0749999955 -0.179999918
v 0.36 0.0749999955 6.29444E-08
v -0.17 0.16 -0.17
v -0.17 0.24000001 -0.17
v 0.17 0.24000001 -0.17
v 0.17 0.16 -0.17
v 0.17 0.16 0.17
v 0.17 0.24000001 0.17
v -0.17 0.24000001 0.17
v -0.17 0.16 0.17
v -0.17 0.16 0.17
v -0.17 0.24000001 0.17
v -0.17 0.24000001 -0.17
v -0.17 0.16 -0.17
v 0.17 0.16 -0.17
v 0.17 0.24000001 -0.17
v 0.17 0.24000001 0.17
v 0.17 0.16 0.17
v -0.17 0.24000001 -0.17
v -0.17 0.24000001 0.17
v 0.17 0.24000001 0.17
v 0.17 0.24000001 -0.17
v -0.17 0.16 0.17
v -0.17 0.16 -0.17
v 0.17 0.16 -0.17
v 0.17 0.16 0.17
vt 0.9941406 0.25
vt 0.9941406 0.25
vt 0.982342 0.355928659
vt 0.982342 0.355928659
vt 0.875 0.25
vt 0.9941406 0.25
vt 0.982342 0.355928659
vt 0.982342 0.355928659
vt 0.982342 0.355928659
vt 0.949282944 0.440876842
vt 0.949282944 0.440876842
vt 0.875 0.25
vt 0.982342 0.355928659
vt 0.949282944 0.440876842
vt 0.949282944 0.440876842
vt 0.949282944 0.440876842
vt 0.901511252 0.4880195
vt 0.901511252 0.4880195
vt 0.875 0.25
vt 0.949282944 0.440876842
vt 0.901511252 0.4880195
vt 0.901511252 0.4880195
vt 0.901511252 0.4880195
vt 0.8484887 0.4880195
vt 0.8484887 0.4880195
vt 0.875 0.25
vt 0.901511252 0.4880195
vt 0.8484887 0.4880195
vt 0.8484887 0.4880195
vt 0.8484887 0.4880195
vt 0.800717056 0.440876842
vt 0.800717056 0.440876842
vt 0.875 0.25
vt 0.8484887 0.4880195
vt 0.800717056 0.440876842
vt 0.800717056 0.440876842
vt 0.800717056 0.440876842
vt 0.767658 0.35592863
vt 0.767658 0.35592863
vt 0.875 0.25
vt 0.800717056 0.440876842
vt 0.767658 0.35592863
vt 0.767658 0.35592863
vt 0.767658 0.35592863
vt 0.7558594 0.249999985
vt 0.7558594 0.249999985
vt 0.875 0.25
vt 0.767658 0.35592863
vt 0.7558594 0.249999985
vt 0.7558594 0.249999985
vt 0.7558594 0.249999985
vt 0.767658 0.144071341
vt 0.767658 0.144071341
vt 0.875 0.25
vt 0.7558594 0.249999985
vt 0.767658 0.144071341
vt 0.767658 0.144071341
vt 0.767658 0.144071341
vt 0.800717056 0.0591231473
vt 0.800717056 0.0591231473
vt 0.875 0.25
vt 0.767658 0.144071341
vt 0.800717056 0.0591231473
vt 0.800717056 0.0591231473
vt 0.800717056 0.0591231473
vt 0.8484887 0.011980487
vt 0.8484887 0.011980487
vt 0.875 0.25
vt 0.800717056 0.0591231473
vt 0.8484887 0.011980487
vt 0.8484887 0.011980487
vt 0.8484887 0.011980487
vt 0.9015113 0.011980487
vt 0.9015113 0.011980487
vt 0.875 0.25
vt 0.8484887 0.011980487
vt 0.9015113 0.011980487
vt 0.9015113 0.011980487
vt 0.9015113 0.011980487
vt 0.949283 0.0591232032
vt 0.949283 0.0591232032
vt 0.875 0.25
vt 0.9015113 0.011980487
vt 0.949283 0.0591232032
vt 0.949283 0.0591232032
vt 0.949283 0.0591232032
vt 0.982342 0.144071341
vt 0.982342 0.144071341
vt 0.875 0.25
vt 0.949283 0.0591232032
vt 0.982342 0.144071341
vt 0.982342 0.144071341
vt 0.982342 0.144071341
vt 0.9941406 0.25000003
vt 0.9941406 0.25000003
vt 0.875 0.25
vt 0.982342 0.144071341
vt 0.9941406 0.25000003
vt 0.875 0.25
vt 0.7558594 0.005859375
vt 0.9941406 0.494140625
vt 0.875 0.25
vt 0.7558594 0.005859375
vt 0.9941406 0.494140625
vt 0.875 0.25
vt 0.7558594 0.005859375
vt 0.9941406 0.494140625
vt 0.875 0.25
vt 0.7558594 0.005859375
vt 0.9941406 0.494140625
vt 0.875 0.25
vt 0.7558594 0.005859375
vt 0.9941406 0.494140625
vt 0.875 0.25
vt 0.7558594 0.005859375
vt 0.9941406 0.494140625
vt 0.875 0.25
vt 0.7558594 0.005859375
vt 0.9941406 0.494140625
vt 0.875 0.25
vt 0.7558594 0.005859375
vt 0.9941406 0.494140625
vt 0.875 0.25
vt 0.7558594 0.005859375
vt 0.9941406 0.494140625
vt 0.875 0.25
vt 0.7558594 0.005859375
vt 0.9941406 0.494140625
vt 0.875 0.25
vt 0.7558594 0.005859375
vt 0.9941406 0.494140625
vt 0.875 0.25
vt 0.7558594 0.005859375
vt 0.9941406 0.494140625
vt 0.875 0.25
vt 0.7558594 0.005859375
vt 0.9941406 0.494140625
vt 0.875 0.25
vt 0.7558594 0.005859375
vt 0.9941406 0.494140625
vt 0.244140625 0.75
vt 0.244140625 0.75
vt 0.228178814 0.8720703
vt 0.228178814 0.8720703
vt 0.125 0.75
vt 0.244140625 0.75
vt 0.228178814 0.8720703
vt 0.228178814 0.8720703
vt 0.228178814 0.8720703
vt 0.184570313 0.961432
vt 0.184570313 0.961432
vt 0.125 0.75
vt 0.228178814 0.8720703
vt 0.184570313 0.961432
vt 0.184570313 0.961432
vt 0.184570313 0.961432
vt 0.124999993 0.9941406
vt 0.124999993 0.9941406
vt 0.125 0.75
vt 0.184570313 0.961432
vt 0.124999993 0.9941406
vt 0.124999993 0.9941406
vt 0.124999993 0.9941406
vt 0.06542969 0.961432
vt 0.06542969 0.961432
vt 0.125 0.75
vt 0.124999993 0.9941406
vt 0.06542969 0.961432
vt 0.06542969 0.961432
vt 0.06542969 0.961432
vt 0.0218211915 0.8720703
vt 0.0218211915 0.8720703
vt 0.125 0.75
vt 0.06542969 0.961432
vt 0.0218211915 0.8720703
vt 0.0218211915 0.8720703
vt 0.0218211915 0.8720703
vt 0.005859375 0.75
vt 0.005859375 0.75
vt 0.125 0.75
vt 0.0218211915 0.8720703
vt 0.005859375 0.75
vt 0.005859375 0.75
vt 0.005859375 0.75
vt 0.021821212 0.6279296
vt 0.021821212 0.6279296
vt 0.125 0.75
vt 0.005859375 0.75
vt 0.021821212 0.6279296
vt 0.021821212 0.6279296
vt 0.021821212 0.6279296
vt 0.065429695 0.538568
vt 0.065429695 0.538568
vt 0.125 0.75
vt 0.021821212 0.6279296
vt 0.065429695 0.538568
vt 0.065429695 0.538568
vt 0.065429695 0.538568
vt 0.125 0.5058594
vt 0.125 0.5058594
vt 0.125 0.75
vt 0.065429695 0.538568
vt 0.125 0.5058594
vt 0.125 0.5058594
vt 0.125 0.5058594
vt 0.1845703 0.538568
vt 0.1845703 0.538568
vt 0.125 0.75
vt 0.125 0.5058594
vt 0.1845703 0.538568
vt 0.1845703 0.538568
vt 0.1845703 0.538568
vt 0.228178829 0.627929747
vt 0.228178829 0.627929747
vt 0.125 0.75
vt 0.1845703 0.538568
vt 0.228178829 0.627929747
vt 0.228178829 0.627929747
vt 0.228178829 0.627929747
vt 0.244140625 0.75
vt 0.244140625 0.75
vt 0.125 0.75
vt 0.228178829 0.627929747
vt 0.244140625 0.75
vt 0.125 0.75
vt 0.005859375 0.5058594
vt 0.244140625 0.9941406
vt 0.125 0.75
vt 0.005859375 0.5058594
vt 0.244140625 0.9941406
vt 0.125 0.75
vt 0.005859375 0.5058594
vt 0.244140625 0.9941406
vt 0.125 0.75
vt 0.005859375 0.5058594
vt 0.244140625 0.9941406
vt 0.125 0.75
vt 0.005859375 0.5058594
vt 0.244140625 0.9941406
vt 0.125 0.75
vt 0.005859375 0.5058594
vt 0.244140625 0.9941406
vt 0.125 0.75
vt 0.005859375 0.5058594
vt 0.244140625 0.9941406
vt 0.125 0.75
vt 0.005859375 0.5058594
vt 0.244140625 0.9941406
vt 0.125 0.75
vt 0.005859375 0.5058594
vt 0.244140625 0.9941406
vt 0.125 0.75
vt 0.005859375 0.5058594
vt 0.244140625 0.9941406
vt 0.125 0.75
vt 0.005859375 0.5058594
vt 0.244140625 0.9941406
vt 0.125 0.75
vt 0.005859375 0.5058594
vt 0.244140625 0.9941406
vt 0.005859375 0.005859375
vt 0.005859375 0.494140625
vt 0.244140625 0.494140625
vt 0.244140625 0.005859375
vt 0.005859375 0.005859375
vt 0.005859375 0.494140625
vt 0.244140625 0.494140625
vt 0.244140625 0.005859375
vt 0.005859375 0.005859375
vt 0.005859375 0.494140625
vt 0.244140625 0.494140625
vt 0.244140625 0.005859375
vt 0.005859375 0.005859375
vt 0.005859375 0.494140625
vt 0.244140625 0.494140625
vt 0.244140625 0.005859375
vt 0.005859375 0.005859375
vt 0.005859375 0.494140625
vt 0.244140625 0.494140625
vt 0.244140625 0.005859375
vt 0.005859375 0.005859375
vt 0.005859375 0.494140625
vt 0.244140625 0.494140625
vt 0.244140625 0.005859375
vn 0.9749279 0 0.222520933
vn 0.9749279 0 0.222520933
vn 0.9749279 0 0.222520933
vn 0.9749279 0 0.222520933
vn 0 1 0
vn 0 1 0
vn 0 1 0
vn 0.7818315 0 0.623489857
vn 0.7818315 0 0.623489857
vn 0.7818315 0 0.623489857
vn 0.7818315 0 0.623489857
vn 0 1 0
vn 0 1 0
vn 0 1 0
vn 0.4338837 0 0.9009689
vn 0.4338837 0 0.9009689
vn 0.4338837 0 0.9009689
vn 0.4338837 0 0.9009689
vn 0 1 0
vn 0 1 0
vn 0 1 0
vn 0 0 1
vn 0 0 1
vn 0 0 1
vn 0 0 1
vn 0 1 0
vn 0 1 0
vn 0 1 0
vn -0.433883846 0 0.90096885
vn -0.433883846 0 0.90096885
vn -0.433883846 0 0.90096885
vn -0.433883846 0 0.90096885
vn 0 1 0
vn 0 1 0
vn 0 1 0
vn -0.781831443 0 0.623489738
vn -0.781831443 0 0.623489738
vn -0.781831443 0 0.623489738
vn -0.781831443 0 0.623489738
vn 0 0.99999994 0
vn 0 0.99999994 0
vn 0 0.99999994 0
vn -0.974927962 0 0.222520813
vn -0.974927962 0 0.222520813
vn -0.974927962 0 0.222520813
vn -0.974927962 0 0.222520813
vn 0 1 0
vn 0 1 0
vn 0 1 0
vn -0.974927843 0 -0.222520962
vn -0.974927843 0 -0.222520962
vn -0.974927843 0 -0.222520962
vn -0.974927843 0 -0.222520962
vn 0 1 0
vn 0 1 0
vn 0 1 0
vn -0.7818313 0 -0.62349
vn -0.7818313 0 -0.62349
vn -0.7818313 0 -0.62349
vn -0.7818313 0 -0.62349
vn 0 1 0
vn 0 1 0
vn 0 1 0
vn -0.4338838 0 -0.90096885
vn -0.4338838 0 -0.90096885
vn -0.4338838 0 -0.90096885
vn -0.4338838 0 -0.90096885
vn 0 1 0
vn 0 1 0
vn 0 1 0
vn 0 0 -1
vn 0 0 -1
vn 0 0 -1
vn 0 0 -1
vn 0 1 0
vn 0 1 0
vn 0 1 0
vn 0.433883876 0 -0.90096885
vn 0.433883876 0 -0.90096885
vn 0.433883876 0 -0.90096885
vn 0.433883876 0 -0.90096885
vn 0 1 0
vn 0 1 0
vn 0 1 0
vn 0.7818316 0 -0.6234896
vn 0.7818316 0 -0.6234896
vn 0.7818316 0 -0.6234896
vn 0.7818316 0 -0.6234896
vn 0 1 0
vn 0 1 0
vn 0 1 0
vn 0.974927962 0 -0.222520843
vn 0.974927962 0 -0.222520843
vn 0.974927962 0 -0.222520843
vn 0.974927962 0 -0.222520843
vn 0 1 0
vn 0 1 0
vn 0 1 0
vn 0 -1 0
vn 0 -1 0
vn 0 -1 0
vn 0 -1 0
vn 0 -1 0
vn 0 -1 0
vn 0 -1 0
vn 0 -1 0
vn 0 -1 0
vn 0 -1 0
vn 0 -1 0
vn 0 -1 0
vn 0 -1 0
vn 0 -1 0
vn 0 -1 0
vn 0 -0.99999994 0
vn 0 -0.99999994 0
vn 0 -0.99999994 0
vn 0 -1 0
vn 0 -1 0
vn 0 -1 0
vn 0 -1 0
vn 0 -1 0
vn 0 -1 0
vn 0 -1 0
vn 0 -1 0
vn 0 -1 0
vn 0 -1 0
vn 0 -1 0
vn 0 -1 0
vn 0 -1 0
vn 0 -1 0
vn 0 -1 0
vn 0 -1 0
vn 0 -1 0
vn 0 -1 0
vn 0 -1 0
vn 0 -1 0
vn 0 -1 0
vn 0 -1 0
vn 0 -1 0
vn 0 -1 0
vn 0.9659258 0 0.258819
vn 0.9659258 0 0.258819
vn 0.9659258 0 0.258819
vn 0.9659258 0 0.258819
vn 0 1 0
vn 0 1 0
vn 0 1 0
vn 0.707106769 0 0.70710665
vn 0.707106769 0 0.70710665
vn 0.707106769 0 0.70710665
vn 0.707106769 0 0.70710665
vn 0 1 0
vn 0 1 0
vn 0 1 0
vn 0.2588189 0 0.9659259
vn 0.2588189 0 0.9659259
vn 0.2588189 0 0.9659259
vn 0.2588189 0 0.9659259
vn 0 1 0
vn 0 1 0
vn 0 1 0
vn -0.258819 0 0.9659258
vn -0.258819 0 0.9659258
vn -0.258819 0 0.9659258
vn -0.258819 0 0.9659258
vn 0 1 0
vn 0 1 0
vn 0 1 0
vn -0.707106769 0 0.707106769
vn -0.707106769 0 0.707106769
vn -0.707106769 0 0.707106769
vn -0.707106769 0 0.707106769
vn 0 1 0
vn 0 1 0
vn 0 1 0
vn -0.9659258 0 0.258818954
vn -0.9659258 0 0.258818954
vn -0.9659258 0 0.258818954
vn -0.9659258 0 0.258818954
vn 0 1 0
vn 0 1 0
vn 0 1 0
vn -0.9659257 0 -0.258819282
vn -0.9659257 0 -0.258819282
vn -0.9659257 0 -0.258819282
vn -0.9659257 0 -0.258819282
vn 0 1 0
vn 0 1 0
vn 0 1 0
vn -0.7071068 0 -0.7071068
vn -0.7071068 0 -0.7071068
vn -0.7071068 0 -0.7071068
vn -0.7071068 0 -0.7071068
vn 0 1 0
vn 0 1 0
vn 0 1 0
vn -0.258818984 0 -0.965925932
vn -0.258818984 0 -0.965925932
vn -0.258818984 0 -0.965925932
vn -0.258818984 0 -0.965925932
vn 0 1 0
vn 0 1 0
vn 0 1 0
vn 0.258818984 0 -0.965925932
vn 0.258818984 0 -0.965925932
vn 0.258818984 0 -0.965925932
vn 0.258818984 0 -0.965925932
vn 0 1 0
vn 0 1 0
vn 0 1 0
vn 0.7071069 0 -0.7071067
vn 0.7071069 0 -0.7071067
vn 0.7071069 0 -0.7071067
vn 0.7071069 0 -0.7071067
vn 0 1 0
vn 0 1 0
vn 0 1 0
vn 0.965925932 0 -0.2588188
vn 0.965925932 0 -0.2588188
vn 0.965925932 0 -0.2588188
vn 0.965925932 0 -0.2588188
vn 0 1 0
vn 0 1 0
vn 0 1 0
vn 0 -1 0
vn 0 -1 0
vn 0 -1 0
vn 0 -1 0
vn 0 -1 0
vn 0 -1 0
vn 0 -1 0
vn 0 -1 0
vn 0 -1 0
vn 0 -1 0
vn 0 -1 0
vn 0 -1 0
vn 0 -1 0
vn 0 -1 0
vn 0 -1 0
vn 0 -1 0
vn 0 -1 0
vn 0 -1 0
vn 0 -1 0
vn 0 -1 0
vn 0 -1 0
vn 0 -1 0
vn 0 -1 0
vn 0 -1 0
vn 0 -1 0
vn 0 -1 0
vn 0 -1 0
vn 0 -1 0
vn 0 -1 0
vn 0 -1 0
vn 0 -1 0
vn 0 -1 0
vn 0 -1 0
vn 0 -1 0
vn 0 -1 0
vn 0 -1 0
vn 0 0 -1
vn 0 0 -1
vn 0 0 -1
vn 0 0 -1
vn 0 0 1
vn 0 0 1
vn 0 0 1
vn 0 0 1
vn -1 0 0
vn -1 0 0
vn -1 0 0
vn -1 0 0
vn 1 0 0
vn 1 0 0
vn 1 0 0
vn 1 0 0
vn 0 1 0
vn 0 1 0
vn 0 1 0
vn 0 1 0
vn 0 -1 0
vn 0 -1 0
vn 0 -1 0
vn 0 -1 0
f 1/1/1 2/2/2 3/3/3
f 1/1/1 3/3/3 4/4/4
f 5/5/5 7/7/7 6/6/6
f 8/8/8 9/9/9 10/10/10
f 8/8/8 10/10/10 11/11/11
f 12/12/12 14/14/14 13/13/13
f 15/15/15 16/16/16 17/17/17
f 15/15/15 17/17/17 18/18/18
f 19/19/19 21/21/21 20/20/20
f 22/22/22 23/23/23 24/24/24
f 22/22/22 24/24/24 25/25/25
f 26/26/26 28/28/28 27/27/27
f 29/29/29 30/30/30 31/31/31
f 29/29/29 31/31/31 32/32/32
f 33/33/33 35/35/35 34/34/34
f 36/36/36 37/37/37 38/38/38
f 36/36/36 38/38/38 39/39/39
f 40/40/40 42/42/42 41/41/41
f 43/43/43 44/44/44 45/45/45
f 43/43/43 45/45/45 46/46/46
f 47/47/47 49/49/49 48/48/48
f 50/50/50 51/51/51 52/52/52
f 50/50/50 52/52/52 53/53/53
f 54/54/54 56/56/56 55/55/55
f 57/57/57 58/58/58 59/59/59
f 57/57/57 59/59/59 60/60/60
f 61/61/61 63/63/63 62/62/62
f 64/64/64 65/65/65 66/66/66
f 64/64/64 66/66/66 67/67/67
f 68/68/68 70/70/70 69/69/69
f 71/71/71 72/72/72 73/73/73
f 71/71/71 73/73/73 74/74/74
f 75/75/75 77/77/77 76/76/76
f 78/78/78 79/79/79 80/80/80
f 78/78/78 80/80/80 81/81/81
f 82/82/82 84/84/84 83/83/83
f 85/85/85 86/86/86 87/87/87
f 85/85/85 87/87/87 88/88/88
f 89/89/89 91/91/91 90/90/90
f 92/92/92 93/93/93 94/94/94
f 92/92/92 94/94/94 95/95/95
f 96/96/96 98/98/98 97/97/97
f 99/99/99 100/100/100 101/101/101
f 102/102/102 103/103/103 104/104/104
f 105/105/105 106/106/106 107/107/107
f 108/108/108 109/109/109 110/110/110
f 111/111/111 112/112/112 113/113/113
f 114/114/114 115/115/115 116/116/116
f 117/117/117 118/118/118 119/119/119
f 120/120/120 121/121/121 122/122/122
f 123/123/123 124/124/124 125/125/125
f 126/126/126 127/127/127 128/128/128
f 129/129/129 130/130/130 131/131/131
f 132/132/132 133/133/133 134/134/134
f 135/135/135 136/136/136 137/137/137
f 138/138/138 139/139/139 140/140/140
f 141/141/141 142/142/142 143/143/143
f 141/141/141 143/143/143 144/144/144
f 145/145/145 147/147/147 146/146/146
f 148/148/148 149/149/149 150/150/150
f 148/148/148 150/150/150 151/151/151
f 152/152/152 154/154/154 153/153/153
f 155/155/155 156/156/156 157/157/157
f 155/155/155 157/157/157 158/158/158
f 159/159/159 161/161/161 160/160/160
f 162/162/162 163/163/163 164/164/164
f 162/162/162 164/164/164 165/165/165
f 166/166/166 168/168/168 167/167/167
f 169/169/169 170/170/170 171/171/171
f 169/169/169 171/171/171 172/172/172
f 173/173/173 175/175/175 174/174/174
f 176/176/176 177/177/177 178/178/178
f 176/176/176 178/178/178 179/179/179
f 180/180/180 182/182/182 181/181/181
f 183/183/183 184/184/184 185/185/185
f 183/183/183 185/185/185 186/186/186
f 187/187/187 189/189/189 188/188/188
f 190/190/190 191/191/191 192/192/192
f 190/190/190 192/192/192 193/193/193
f 194/194/194 196/196/196 195/195/195
f 197/197/197 198/198/198 199/199/199
f 197/197/197 199/199/199 200/200/200
f 201/201/201 203/203/203 202/202/202
f 204/204/204 205/205/205 206/206/206
f 204/204/204 206/206/206 207/207/207
f 208/208/208 210/210/210 209/209/209
f 211/211/211 212/212/212 213/213/213
f 211/211/211 213/213/213 214/214/214
f 215/215/215 217/217/217 216/216/216
f 218/218/218 219/219/219 220/220/220
f 218/218/218 220/220/220 221/221/221
f 222/222/222 224/224/224 223/223/223
f 225/225/225 226/226/226 227/227/227
f 228/228/228 229/229/229 230/230/230
f 231/231/231 232/232/232 233/233/233
f 234/234/234 235/235/235 236/236/236
f 237/237/237 238/238/238 239/239/239
f 240/240/240 241/241/241 242/242/242
f 243/243/243 244/244/244 245/245/245
f 246/246/246 247/247/247 248/248/248
f 249/249/249 250/250/250 251/251/251
f 252/252/252 253/253/253 254/254/254
f 255/255/255 256/256/256 257/257/257
f 258/258/258 259/259/259 260/260/260
f 261/261/261 262/262/262 263/263/263
f 261/261/261 263/263/263 264/264/264
f 265/265/265 266/266/266 267/267/267
f 265/265/265 267/267/267 268/268/268
f 269/269/269 270/270/270 271/271/271
f 269/269/269 271/271/271 272/272/272
f 273/273/273 274/274/274 275/275/275
f 273/273/273 275/275/275 276/276/276
f 277/277/277 278/278/278 279/279/279
f 277/277/277 279/279/279 280/280/280
f 281/281/281 282/282/282 283/283/283
f 281/281/281 283/283/283 284/284/284
