v 0.48 -0.08 0
v 0.48 0.08 0
v 0.456507117 0.08 0.148328155
v 0.456507117 -0.08 0.148328155
v 0 0.08 0
v 0.48 0.08 0
v 0.456507117 0.08 0.148328155
v 0.456507117 -0.08 0.148328155
v 0.456507117 0.08 0.148328155
v 0.388328165 0.08 0.282136917
v 0.388328165 -0.08 0.282136917
v 0 0.08 0
v 0.456507117 0.08 0.148328155
v 0.388328165 0.08 0.282136917
v 0.388328165 -0.08 0.282136917
v 0.388328165 0.08 0.282136917
v 0.282136917 0.08 0.388328165
v 0.282136917 -0.08 0.388328165
v 0 0.08 0
v 0.388328165 0.08 0.282136917
v 0.282136917 0.08 0.388328165
v 0.282136917 -0.08 0.388328165
v 0.282136917 0.08 0.388328165
v 0.14832814 0.08 0.456507117
v 0.14832814 -0.08 0.456507117
v 0 0.08 0
v 0.282136917 0.08 0.388328165
v 0.14832814 0.08 0.456507117
v 0.14832814 -0.08 0.456507117
v 0.14832814 0.08 0.456507117
v -2.09814655E-08 0.08 0.48
v -2.09814655E-08 -0.08 0.48
v 0 0.08 0
v 0.14832814 0.08 0.456507117
v -2.09814655E-08 0.08 0.48
v -2.09814655E-08 -0.08 0.48
v -2.09814655E-08 0.08 0.48
v -0.14832817 0.08 0.4565071
v -0.14832817 -0.08 0.4565071
v 0 0.08 0
v -2.09814655E-08 0.08 0.48
v -0.14832817 0.08 0.4565071
v -0.14832817 -0.08 0.4565071
v -0.14832817 0.08 0.4565071
v -0.2821369 0.08 0.388328165
v -0.2821369 -0.08 0.388328165
v 0 0.08 0
v -0.14832817 0.08 0.4565071
v -0.2821369 0.08 0.388328165
v -0.2821369 -0.08 0.388328165
v -0.2821369 0.08 0.388328165
v -0.3883282 0.08 0.2821369
v -0.3883282 -0.08 0.2821369
v 0 0.08 0
v -0.2821369 0.08 0.388328165
v -0.3883282 0.08 0.2821369
v -0.3883282 -0.08 0.2821369
v -0.3883282 0.08 0.2821369
v -0.456507146 0.08 0.148328051
v -0.456507146 -0.08 0.148328051
v 0 0.08 0
v -0.3883282 0.08 0.2821369
v -0.456507146 0.08 0.148328051
v -0.456507146 -0.08 0.148328051
v -0.456507146 0.08 0.148328051
v -0.48 0.08 -4.196293E-08
v -0.48 -0.08 -4.196293E-08
v 0 0.08 0
v -0.456507146 0.08 0.148328051
v -0.48 0.08 -4.196293E-08
v -0.48 -0.08 -4.196293E-08
v -0.48 0.08 -4.196293E-08
v -0.456507117 0.08 -0.14832814
v -0.456507117 -0.08 -0.14832814
v 0 0.08 0
v -0.48 0.08 -4.196293E-08
v -0.456507117 0.08 -0.14832814
v -0.456507117 -0.08 -0.14832814
v -0.456507117 0.08 -0.14832814
v -0.388328135 0.08 -0.282136977
v -0.388328135 -0.08 -0.282136977
v 0 0.08 0
v -0.456507117 0.08 -0.14832814
v -0.388328135 0.08 -0.282136977
v -0.388328135 -0.08 -0.282136977
v -0.388328135 0.08 -0.282136977
v -0.282136828 0.08 -0.388328224
v -0.282136828 -0.08 -0.388328224
v 0 0.08 0
v -0.388328135 0.08 -0.282136977
v -0.282136828 0.08 -0.388328224
v -0.282136828 -0.08 -0.388328224
v -0.282136828 0.08 -0.388328224
v -0.1483282 0.08 -0.4565071
v -0.1483282 -0.08 -0.4565071
v 0 0.08 0
v -0.282136828 0.08 -0.388328224
v -0.1483282 0.08 -0.4565071
v -0.1483282 -0.08 -0.4565071
v -0.1483282 0.08 -0.4565071
v 5.72394265E-09 0.08 -0.48
v 5.72394265E-09 -0.08 -0.48
v 0 0.08 0
v -0.1483282 0.08 -0.4565071
v 5.72394265E-09 0.08 -0.48
v 5.72394265E-09 -0.08 -0.48
v 5.72394265E-09 0.08 -0.48
v 0.148328215 0.08 -0.4565071
v 0.148328215 -0.08 -0.4565071
v 0 0.08 0
v 5.72394265E-09 0.08 -0.48
v 0.148328215 0.08 -0.4565071
v 0.148328215 -0.08 -0.4565071
v 0.148328215 0.08 -0.4565071
v 0.282137036 0.08 -0.388328075
v 0.282137036 -0.08 -0.388328075
v 0 0.08 0
v 0.148328215 0.08 -0.4565071
v 0.282137036 0.08 -0.388328075
v 0.282137036 -0.08 -0.388328075
v 0.282137036 0.08 -0.388328075
v 0.388328254 0.08 -0.282136768
v 0.388328254 -0.08 -0.282136768
v 0 0.08 0
v 0.282137036 0.08 -0.388328075
v 0.388328254 0.08 -0.282136768
v 0.388328254 -0.08 -0.282136768
v 0.388328254 0.08 -0.282136768
v 0.456507117 0.08 -0.148328125
v 0.456507117 -0.08 -0.148328125
v 0 0.08 0
v 0.388328254 0.08 -0.282136768
v 0.456507117 0.08 -0.148328125
v 0.456507117 -0.08 -0.148328125
v 0.456507117 0.08 -0.148328125
v 0.48 0.08 8.392586E-08
v 0.48 -0.08 8.392586E-08
v 0 0.08 0
v 0.456507117 0.08 -0.148328125
v 0.48 0.08 8.392586E-08
v 0 -0.08 0
v 0.48 -0.08 0
v 0.456507117 -0.08 0.148328155
v 0 -0.08 0
v 0.456507117 -0.08 0.148328155
v 0.388328165 -0.08 0.282136917
v 0 -0.08 0
v 0.388328165 -0.08 0.282136917
v 0.282136917 -0.08 0.388328165
v 0 -0.08 0
v 0.282136917 -0.08 0.388328165
v 0.14832814 -0.08 0.456507117
v 0 -0.08 0
v 0.14832814 -0.08 0.456507117
v -2.09814655E-08 -0.08 0.48
v 0 -0.08 0
v -2.09814655E-08 -0.08 0.48
v -0.14832817 -0.08 0.4565071
v 0 -0.08 0
v -0.14832817 -0.08 0.4565071
v -0.2821369 -0.08 0.388328165
v 0 -0.08 0
v -0.2821369 -0.08 0.388328165
v -0.3883282 -0.08 0.2821369
v 0 -0.08 0
v -0.3883282 -0.08 0.2821369
v -0.456507146 -0.08 0.148328051
v 0 -0.08 0
v -0.456507146 -0.08 0.148328051
v -0.48 -0.08 -4.196293E-08
v 0 -0.08 0
v -0.48 -0.08 -4.196293E-08
v -0.456507117 -0.08 -0.14832814
v 0 -0.08 0
v -0.456507117 -0.08 -0.14832814
v -0.388328135 -0.08 -0.282136977
v 0 -0.08 0
v -0.388328135 -0.08 -0.282136977
v -0.282136828 -0.08 -0.388328224
v 0 -0.08 0
v -0.282136828 -0.08 -0.388328224
v -0.1483282 -0.08 -0.4565071
v 0 -0.08 0
v -0.1483282 -0.08 -0.4565071
v 5.72394265E-09 -0.08 -0.48
v 0 -0.08 0
v 5.72394265E-09 -0.08 -0.48
v 0.148328215 -0.08 -0.4565071
v 0 -0.08 0
v 0.148328215 -0.08 -0.4565071
v 0.282137036 -0.08 -0.388328075
v 0 -0.08 0
v 0.282137036 -0.08 -0.388328075
v 0.388328254 -0.08 -0.282136768
v 0 -0.08 0
v 0.388328254 -0.08 -0.282136768
v 0.456507117 -0.08 -0.148328125
v 0 -0.08 0
v 0.456507117 -0.08 -0.148328125
v 0.48 -0.08 8.392586E-08
v 0.36 0.0749999955 0
v 0.36 0.164999992 0
v 0.33259663 0.164999992 0.137766048
v 0.33259663 0.0749999955 0.137766048
v 0 0.164999992 0
v 0.36 0.164999992 0
v 0.33259663 0.164999992 0.137766048
v 0.33259663 0.0749999955 0.137766048
v 0.33259663 0.164999992 0.137766048
v 0.254558444 0.164999992 0.254558444
v 0.254558444 0.0749999955 0.254558444
v 0 0.164999992 0
v 0.33259663 0.164999992 0.137766048
v 0.254558444 0.164999992 0.254558444
v 0.254558444 0.0749999955 0.254558444
v 0.254558444 0.164999992 0.254558444
v 0.137766033 0.164999992 0.33259663
v 0.137766033 0.0749999955 0.33259663
v 0 0.164999992 0
v 0.254558444 0.164999992 0.254558444
v 0.137766033 0.164999992 0.33259663
v 0.137766033 0.0749999955 0.33259663
v 0.137766033 0.164999992 0.33259663
v -1.57361E-08 0.164999992 0.36
v -1.57361E-08 0.0749999955 0.36
v 0 0.164999992 0
v 0.137766033 0.164999992 0.33259663
v -1.57361E-08 0.164999992 0.36
v -1.57361E-08 0.0749999955 0.36
v -1.57361E-08 0.164999992 0.36
v -0.137766078 0.164999992 0.33259663
v -0.137766078 0.0749999955 0.33259663
v 0 0.164999992 0
v -1.57361E-08 0.164999992 0.36
v -0.137766078 0.164999992 0.33259663
v -0.137766078 0.0749999955 0.33259663
v -0.137766078 0.164999992 0.33259663
v -0.254558444 0.164999992 0.254558444
v -0.254558444 0.0749999955 0.254558444
v 0 0.164999992 0
v -0.137766078 0.164999992 0.33259663
v -0.254558444 0.164999992 0.254558444
v -0.254558444 0.0749999955 0.254558444
v -0.254558444 0.164999992 0.254558444
v -0.3325967 0.164999992 0.137765989
v -0.3325967 0.0749999955 0.137765989
v 0 0.164999992 0
v -0.254558444 0.164999992 0.254558444
v -0.3325967 0.164999992 0.137765989
v -0.3325967 0.0749999955 0.137765989
v -0.3325967 0.164999992 0.137765989
v -0.36 0.164999992 -3.14722E-08
v -0.36 0.0749999955 -3.14722E-08
v 0 0.164999992 0
v -0.3325967 0.164999992 0.137765989
v -0.36 0.164999992 -3.14722E-08
v -0.36 0.0749999955 -3.14722E-08
v -0.36 0.164999992 -3.14722E-08
v -0.33259663 0.164999992 -0.137766033
v -0.33259663 0.0749999955 -0.137766033
v 0 0.164999992 0
v -0.36 0.164999992 -3.14722E-08
v -0.33259663 0.164999992 -0.137766033
v -0.33259663 0.0749999955 -0.137766033
v -0.33259663 0.164999992 -0.137766033
v -0.2545584 0.164999992 -0.2545585
v -0.2545584 0.0749999955 -0.2545585
v 0 0.164999992 0
v -0.33259663 0.164999992 -0.137766033
v -0.2545584 0.164999992 -0.2545585
v -0.2545584 0.0749999955 -0.2545585
v -0.2545584 0.164999992 -0.2545585
v -0.137765929 0.164999992 -0.3325967
v -0.137765929 0.0749999955 -0.3325967
v 0 0.164999992 0
v -0.2545584 0.164999992 -0.2545585
v -0.137765929 0.164999992 -0.3325967
v -0.137765929 0.0749999955 -0.3325967
v -0.137765929 0.164999992 -0.3325967
v 4.292957E-09 0.164999992 -0.36
v 4.292957E-09 0.0749999955 -0.36
v 0 0.164999992 0
v -0.137765929 0.164999992 -0.3325967
v 4.292957E-09 0.164999992 -0.36
v 4.292957E-09 0.0749999955 -0.36
v 4.292957E-09 0.164999992 -0.36
v 0.137766108 0.164999992 -0.3325966
v 0.137766108 0.0749999955 -0.3325966
v 0 0.164999992 0
v 4.292957E-09 0.164999992 -0.36
v 0.137766108 0.164999992 -0.3325966
v 0.137766108 0.0749999955 -0.3325966
v 0.137766108 0.164999992 -0.3325966
v 0.254558533 0.164999992 -0.254558355
v 0.254558533 0.0749999955 -0.254558355
v 0 0.164999992 0
v 0.137766108 0.164999992 -0.3325966
v 0.254558533 0.164999992 -0.254558355
v 0.254558533 0.0749999955 -0.254558355
v 0.254558533 0.164999992 -0.254558355
v 0.33259666 0.164999992 -0.137766033
v 0.33259666 0.0749999955 -0.137766033
v 0 0.164999992 0
v 0.254558533 0.164999992 -0.254558355
v 0.33259666 0.164999992 -0.137766033
v 0.33259666 0.0749999955 -0.137766033
v 0.33259666 0.164999992 -0.137766033
v 0.36 0.164999992 6.29444E-08
v 0.36 0.0749999955 6.29444E-08
v 0 0.164999992 0
v 0.33259666 0.164999992 -0.137766033
v 0.36 0.164999992 6.29444E-08
v 0 0.0749999955 0
v 0.36 0.0749999955 0
v 0.33259663 0.0749999955 0.137766048
v 0 0.0749999955 0
v 0.33259663 0.0749999955 0.137766048
v 0.254558444 0.0749999955 0.254558444
v 0 0.0749999955 0
v 0.254558444 0.0749999955 0.254558444
v 0.137766033 0.0749999955 0.33259663
v 0 0.0749999955 0
v 0.137766033 0.0749999955 0.33259663
v -1.57361E-08 0.0749999955 0.36
v 0 0.0749999955 0
v -1.57361E-08 0.0749999955 0.36
v -0.137766078 0.0749999955 0.33259663
v 0 0.0749999955 0
v -0.137766078 0.0749999955 0.33259663
v -0.254558444 0.0749999955 0.254558444
v 0 0.0749999955 0
v -0.254558444 0.0749999955 0.254558444
v -0.3325967 0.0749999955 0.137765989
v 0 0.0749999955 0
v -0.3325967 0.0749999955 0.137765989
v -0.36 0.0749999955 -3.14722E-08
v 0 0.0749999955 0
v -0.36 0.0749999955 -3.14722E-08
v -0.33259663 0.0749999955 -0.137766033
v 0 0.0749999955 0
v -0.33259663 0.0749999955 -0.137766033
v -0.2545584 0.0749999955 -0.2545585
v 0 0.0749999955 0
v -0.2545584 0.0749999955 -0.2545585
v -0.137765929 0.0749999955 -0.3325967
v 0 0.0749999955 0
v -0.137765929 0.0749999955 -0.3325967
v 4.292957E-09 0.0749999955 -0.36
v 0 0.0749999955 0
v 4.292957E-09 0.0749999955 -0.36
v 0.137766108 0.0749999955 -0.3325966
v 0 0.0749999955 0
v 0.137766108 0.0749999955 -0.3325966
v 0.254558533 0.0749999955 -0.254558355
v 0 0.0749999955 0
v 0.254558533 0.0749999955 -0.254558355
v 0.33259666 0.0749999955 -0.137766033
v 0 0.0749999955 0
v 0.33259666 0.0749999955 -0.137766033
v 0.36 0.0749999955 6.29444E-08
v -0.17 0.16 -0.17
v -0.17 0.24000001 -0.17
v 0.17 0.24000001 -0.17
v 0.17 0.16 -0.17
v 0.17 0.16 0.17
v 0.17 0.24000001 0.17
v -0.17 0.24000001 0.17
v -0.17 0.16 0.17
v -0.17 0.16 0.17
v -0.17 0.24000001 0.17
v -0.17 0.24000001 -0.17
v -0.17 0.16 -0.17
v 0.17 0.16 -0.17
v 0.17 0.24000001 -0.17
v 0.17 0.24000001 0.17
v 0.17 0.16 0.17
v -0.17 0.24000001 -0.17
v -0.17 0.24000001 0.17
v 0.17 0.24000001 0.17
v 0.17 0.24000001 -0.17
v -0.17 0.16 0.17
v -0.17 0.16 -0.17
v 0.17 0.16 -0.17
v 0.17 0.16 0.17
v -0.1 -0.125 -0.450000018
v -0.1 0.125 -0.450000018
v 0.1 0.125 -0.450000018
v 0.1 -0.125 -0.450000018
v 0.1 -0.125 -0.35
v 0.1 0.125 -0.35
v -0.1 0.125 -0.35
v -0.1 -0.125 -0.35
v -0.1 -0.125 -0.35
v -0.1 0.125 -0.35
v -0.1 0.125 -0.450000018
v -0.1 -0.125 -0.450000018
v 0.1 -0.125 -0.450000018
v 0.1 0.125 -0.450000018
v 0.1 0.125 -0.35
v 0.1 -0.125 -0.35
v -0.1 0.125 -0.450000018
v -0.1 0.125 -0.35
v 0.1 0.125 -0.35
v 0.1 0.125 -0.450000018
v -0.1 -0.125 -0.35
v -0.1 -0.125 -0.450000018
v 0.1 -0.125 -0.450000018
v 0.1 -0.125 -0.35
vt 0.9941406 0.25
vt 0.9941406 0.25
vt 0.988309443 0.3254436
vt 0.988309443 0.3254436
vt 0.875 0.25
vt 0.9941406 0.25
vt 0.988309443 0.3254436
vt 0.988309443 0.3254436
vt 0.988309443 0.3254436
vt 0.9713868 0.393502265
vt 0.9713868 0.393502265
vt 0.875 0.25
vt 0.988309443 0.3254436
vt 0.9713868 0.393502265
vt 0.9713868 0.393502265
vt 0.9713868 0.393502265
vt 0.9450291 0.447513938
vt 0.9450291 0.447513938
vt 0.875 0.25
vt 0.9713868 0.393502265
vt 0.9450291 0.447513938
vt 0.9450291 0.447513938
vt 0.9450291 0.447513938
vt 0.9118165 0.482191533
vt 0.9118165 0.482191533
vt 0.875 0.25
vt 0.9450291 0.447513938
vt 0.9118165 0.482191533
vt 0.9118165 0.482191533
vt 0.9118165 0.482191533
vt 0.875 0.494140625
vt 0.875 0.494140625
vt 0.875 0.25
vt 0.9118165 0.482191533
vt 0.875 0.494140625
vt 0.875 0.494140625
vt 0.875 0.494140625
vt 0.8381835 0.482191533
vt 0.8381835 0.482191533
vt 0.875 0.25
vt 0.875 0.494140625
vt 0.8381835 0.482191533
vt 0.8381835 0.482191533
vt 0.8381835 0.482191533
vt 0.8049709 0.447513938
vt 0.8049709 0.447513938
vt 0.875 0.25
vt 0.8381835 0.482191533
vt 0.8049709 0.447513938
vt 0.8049709 0.447513938
vt 0.8049709 0.447513938
vt 0.7786132 0.393502265
vt 0.7786132 0.393502265
vt 0.875 0.25
vt 0.8049709 0.447513938
vt 0.7786132 0.393502265
vt 0.7786132 0.393502265
vt 0.7786132 0.393502265
vt 0.7616905 0.325443566
vt 0.7616905 0.325443566
vt 0.875 0.25
vt 0.7786132 0.393502265
vt 0.7616905 0.325443566
vt 0.7616905 0.325443566
vt 0.7616905 0.325443566
vt 0.7558594 0.249999985
vt 0.7558594 0.249999985
vt 0.875 0.25
vt 0.7616905 0.325443566
vt 0.7558594 0.249999985
vt 0.7558594 0.249999985
vt 0.7558594 0.249999985
vt 0.761690557 0.1745564
vt 0.761690557 0.1745564
vt 0.875 0.25
vt 0.7558594 0.249999985
vt 0.761690557 0.1745564
vt 0.761690557 0.1745564
vt 0.761690557 0.1745564
vt 0.7786132 0.106497705
vt 0.7786132 0.106497705
vt 0.875 0.25
vt 0.761690557 0.1745564
vt 0.7786132 0.106497705
vt 0.7786132 0.106497705
vt 0.7786132 0.106497705
vt 0.8049709 0.0524860471
vt 0.8049709 0.0524860471
vt 0.875 0.25
vt 0.7786132 0.106497705
vt 0.8049709 0.0524860471
vt 0.8049709 0.0524860471
vt 0.8049709 0.0524860471
vt 0.8381835 0.0178084839
vt 0.8381835 0.0178084839
vt 0.875 0.25
vt 0.8049709 0.0524860471
vt 0.8381835 0.0178084839
vt 0.8381835 0.0178084839
vt 0.8381835 0.0178084839
vt 0.875 0.005859375
vt 0.875 0.005859375
vt 0.875 0.25
vt 0.8381835 0.0178084839
vt 0.875 0.005859375
vt 0.875 0.005859375
vt 0.875 0.005859375
vt 0.9118165 0.0178084839
vt 0.9118165 0.0178084839
vt 0.875 0.25
vt 0.875 0.005859375
vt 0.9118165 0.0178084839
vt 0.9118165 0.0178084839
vt 0.9118165 0.0178084839
vt 0.94502914 0.05248612
vt 0.94502914 0.05248612
vt 0.875 0.25
vt 0.9118165 0.0178084839
vt 0.94502914 0.05248612
vt 0.94502914 0.05248612
vt 0.94502914 0.05248612
vt 0.9713868 0.106497817
vt 0.9713868 0.106497817
vt 0.875 0.25
vt 0.94502914 0.05248612
vt 0.9713868 0.106497817
vt 0.9713868 0.106497817
vt 0.9713868 0.106497817
vt 0.988309443 0.1745564
vt 0.988309443 0.1745564
vt 0.875 0.25
vt 0.9713868 0.106497817
vt 0.988309443 0.1745564
vt 0.988309443 0.1745564
vt 0.988309443 0.1745564
vt 0.9941406 0.25000003
vt 0.9941406 0.25000003
vt 0.875 0.25
vt 0.988309443 0.1745564
vt 0.9941406 0.25000003
vt 0.875 0.25
vt 0.7558594 0.005859375
vt 0.9941406 0.494140625
vt 0.875 0.25
vt 0.7558594 0.005859375
vt 0.9941406 0.494140625
vt 0.875 0.25
vt 0.7558594 0.005859375
vt 0.9941406 0.494140625
vt 0.875 0.25
vt 0.7558594 0.005859375
vt 0.9941406 0.494140625
vt 0.875 0.25
vt 0.7558594 0.005859375
vt 0.9941406 0.494140625
vt 0.875 0.25
vt 0.7558594 0.005859375
vt 0.9941406 0.494140625
vt 0.875 0.25
vt 0.7558594 0.005859375
vt 0.9941406 0.494140625
vt 0.875 0.25
vt 0.7558594 0.005859375
vt 0.9941406 0.494140625
vt 0.875 0.25
vt 0.7558594 0.005859375
vt 0.9941406 0.494140625
vt 0.875 0.25
vt 0.7558594 0.005859375
vt 0.9941406 0.494140625
vt 0.875 0.25
vt 0.7558594 0.005859375
vt 0.9941406 0.494140625
vt 0.875 0.25
vt 0.7558594 0.005859375
vt 0.9941406 0.494140625
vt 0.875 0.25
vt 0.7558594 0.005859375
vt 0.9941406 0.494140625
vt 0.875 0.25
vt 0.7558594 0.005859375
vt 0.9941406 0.494140625
vt 0.875 0.25
vt 0.7558594 0.005859375
vt 0.9941406 0.494140625
vt 0.875 0.25
vt 0.7558594 0.005859375
vt 0.9941406 0.494140625
vt 0.875 0.25
vt 0.7558594 0.005859375
vt 0.9941406 0.494140625
vt 0.875 0.25
vt 0.7558594 0.005859375
vt 0.9941406 0.494140625
vt 0.875 0.25
vt 0.7558594 0.005859375
vt 0.9941406 0.494140625
vt 0.875 0.25
vt 0.7558594 0.005859375
vt 0.9941406 0.494140625
vt 0.244140625 0.75
vt 0.244140625 0.75
vt 0.235071585 0.843428552
vt 0.235071585 0.843428552
vt 0.125 0.75
vt 0.244140625 0.75
vt 0.235071585 0.843428552
vt 0.235071585 0.843428552
vt 0.235071585 0.843428552
vt 0.20924513 0.922633469
vt 0.20924513 0.922633469
vt 0.125 0.75
vt 0.235071585 0.843428552
vt 0.20924513 0.922633469
vt 0.20924513 0.922633469
vt 0.20924513 0.922633469
vt 0.170593143 0.9755565
vt 0.170593143 0.9755565
vt 0.125 0.75
vt 0.20924513 0.922633469
vt 0.170593143 0.9755565
vt 0.170593143 0.9755565
vt 0.170593143 0.9755565
vt 0.124999993 0.9941406
vt 0.124999993 0.9941406
vt 0.125 0.75
vt 0.170593143 0.9755565
vt 0.124999993 0.9941406
vt 0.124999993 0.9941406
vt 0.124999993 0.9941406
vt 0.07940685 0.9755565
vt 0.07940685 0.9755565
vt 0.125 0.75
vt 0.124999993 0.9941406
vt 0.07940685 0.9755565
vt 0.07940685 0.9755565
vt 0.07940685 0.9755565
vt 0.04075486 0.922633469
vt 0.04075486 0.922633469
vt 0.125 0.75
vt 0.07940685 0.9755565
vt 0.04075486 0.922633469
vt 0.04075486 0.922633469
vt 0.04075486 0.922633469
vt 0.0149284005 0.843428552
vt 0.0149284005 0.843428552
vt 0.125 0.75
vt 0.04075486 0.922633469
vt 0.0149284005 0.843428552
vt 0.0149284005 0.843428552
vt 0.0149284005 0.843428552
vt 0.005859375 0.75
vt 0.005859375 0.75
vt 0.125 0.75
vt 0.0149284005 0.843428552
vt 0.005859375 0.75
vt 0.005859375 0.75
vt 0.005859375 0.75
vt 0.01492842 0.656571448
vt 0.01492842 0.656571448
vt 0.125 0.75
vt 0.005859375 0.75
vt 0.01492842 0.656571448
vt 0.01492842 0.656571448
vt 0.01492842 0.656571448
vt 0.04075487 0.5773665
vt 0.04075487 0.5773665
vt 0.125 0.75
vt 0.01492842 0.656571448
vt 0.04075487 0.5773665
vt 0.04075487 0.5773665
vt 0.04075487 0.5773665
vt 0.0794068947 0.524443448
vt 0.0794068947 0.524443448
vt 0.125 0.75
vt 0.04075487 0.5773665
vt 0.0794068947 0.524443448
vt 0.0794068947 0.524443448
vt 0.0794068947 0.524443448
vt 0.125 0.5058594
vt 0.125 0.5058594
vt 0.125 0.75
vt 0.0794068947 0.524443448
vt 0.125 0.5058594
vt 0.125 0.5058594
vt 0.125 0.5058594
vt 0.170593172 0.5244435
vt 0.170593172 0.5244435
vt 0.125 0.75
vt 0.125 0.5058594
vt 0.170593172 0.5244435
vt 0.170593172 0.5244435
vt 0.170593172 0.5244435
vt 0.209245175 0.5773666
vt 0.209245175 0.5773666
vt 0.125 0.75
vt 0.170593172 0.5244435
vt 0.209245175 0.5773666
vt 0.209245175 0.5773666
vt 0.209245175 0.5773666
vt 0.2350716 0.656571448
vt 0.2350716 0.656571448
vt 0.125 0.75
vt 0.209245175 0.5773666
vt 0.2350716 0.656571448
vt 0.2350716 0.656571448
vt 0.2350716 0.656571448
vt 0.244140625 0.75
vt 0.244140625 0.75
vt 0.125 0.75
vt 0.2350716 0.656571448
vt 0.244140625 0.75
vt 0.125 0.75
vt 0.005859375 0.5058594
vt 0.244140625 0.9941406
vt 0.125 0.75
vt 0.005859375 0.5058594
vt 0.244140625 0.9941406
vt 0.125 0.75
vt 0.005859375 0.5058594
vt 0.244140625 0.9941406
vt 0.125 0.75
vt 0.005859375 0.5058594
vt 0.244140625 0.9941406
vt 0.125 0.75
vt 0.005859375 0.5058594
vt 0.244140625 0.9941406
vt 0.125 0.75
vt 0.005859375 0.5058594
vt 0.244140625 0.9941406
vt 0.125 0.75
vt 0.005859375 0.5058594
vt 0.244140625 0.9941406
vt 0.125 0.75
vt 0.005859375 0.5058594
vt 0.244140625 0.9941406
vt 0.125 0.75
vt 0.005859375 0.5058594
vt 0.244140625 0.9941406
vt 0.125 0.75
vt 0.005859375 0.5058594
vt 0.244140625 0.9941406
vt 0.125 0.75
vt 0.005859375 0.5058594
vt 0.244140625 0.9941406
vt 0.125 0.75
vt 0.005859375 0.5058594
vt 0.244140625 0.9941406
vt 0.125 0.75
vt 0.005859375 0.5058594
vt 0.244140625 0.9941406
vt 0.125 0.75
vt 0.005859375 0.5058594
vt 0.244140625 0.9941406
vt 0.125 0.75
vt 0.005859375 0.5058594
vt 0.244140625 0.9941406
vt 0.125 0.75
vt 0.005859375 0.5058594
vt 0.244140625 0.9941406
vt 0.005859375 0.005859375
vt 0.005859375 0.494140625
vt 0.244140625 0.494140625
vt 0.244140625 0.005859375
vt 0.005859375 0.005859375
vt 0.005859375 0.494140625
vt 0.244140625 0.494140625
vt 0.244140625 0.005859375
vt 0.005859375 0.005859375
vt 0.005859375 0.494140625
vt 0.244140625 0.494140625
vt 0.244140625 0.005859375
vt 0.005859375 0.005859375
vt 0.005859375 0.494140625
vt 0.244140625 0.494140625
vt 0.244140625 0.005859375
vt 0.005859375 0.005859375
vt 0.005859375 0.494140625
vt 0.244140625 0.494140625
vt 0.244140625 0.005859375
vt 0.005859375 0.005859375
vt 0.005859375 0.494140625
vt 0.244140625 0.494140625
vt 0.244140625 0.005859375
vt 0.5058594 0.005859375
vt 0.5058594 0.494140625
vt 0.7441406 0.494140625
vt 0.7441406 0.005859375
vt 0.5058594 0.005859375
vt 0.5058594 0.494140625
vt 0.7441406 0.494140625
vt 0.7441406 0.005859375
vt 0.5058594 0.005859375
vt 0.5058594 0.494140625
vt 0.7441406 0.494140625
vt 0.7441406 0.005859375
vt 0.5058594 0.005859375
vt 0.5058594 0.494140625
vt 0.7441406 0.494140625
vt 0.7441406 0.005859375
vt 0.5058594 0.005859375
vt 0.5058594 0.494140625
vt 0.7441406 0.494140625
vt 0.7441406 0.005859375
vt 0.5058594 0.005859375
vt 0.5058594 0.494140625
vt 0.7441406 0.494140625
vt 0.7441406 0.005859375
vn 0.9876883 0 0.156434476
vn 0.9876883 0 0.156434476
vn 0.9876883 0 0.156434476
vn 0.9876883 0 0.156434476
vn 0 1 0
vn 0 1 0
vn 0 1 0
vn 0.8910065 0 0.45399034
vn 0.8910065 0 0.45399034
vn 0.8910065 0 0.45399034
vn 0.8910065 0 0.45399034
vn 0 1 0
vn 0 1 0
vn 0 1 0
vn 0.7071068 0 0.7071068
vn 0.7071068 0 0.7071068
vn 0.7071068 0 0.7071068
vn 0.7071068 0 0.7071068
vn 0 1 0
vn 0 1 0
vn 0 1 0
vn 0.45399034 0 0.8910066
vn 0.45399034 0 0.8910066
vn 0.45399034 0 0.8910066
vn 0.45399034 0 0.8910066
vn 0 1 0
vn 0 1 0
vn 0 1 0
vn 0.156434476 0 0.9876883
vn 0.156434476 0 0.9876883
vn 0.156434476 0 0.9876883
vn 0.156434476 0 0.9876883
vn 0 1 0
vn 0 1 0
vn 0 1 0
vn -0.15643467 0 0.9876883
vn -0.15643467 0 0.9876883
vn -0.15643467 0 0.9876883
vn -0.15643467 0 0.9876883
vn 0 1 0
vn 0 1 0
vn 0 1 0
vn -0.45399037 0 0.8910066
vn -0.45399037 0 0.8910066
vn -0.45399037 0 0.8910066
vn -0.45399037 0 0.8910066
vn 0 1 0
vn 0 1 0
vn 0 1 0
vn -0.70710665 0 0.7071069
vn -0.70710665 0 0.7071069
vn -0.70710665 0 0.7071069
vn -0.70710665 0 0.7071069
vn 0 1 0
vn 0 1 0
vn 0 1 0
vn -0.891006649 0 0.4539902
vn -0.891006649 0 0.4539902
vn -0.891006649 0 0.4539902
vn -0.891006649 0 0.4539902
vn 0 1 0
vn 0 1 0
vn 0 1 0
vn -0.987688363 0 0.156434342
vn -0.987688363 0 0.156434342
vn -0.987688363 0 0.156434342
vn -0.987688363 0 0.156434342
vn 0 1 0
vn 0 1 0
vn 0 1 0
vn -0.9876883 0 -0.156434521
vn -0.9876883 0 -0.156434521
vn -0.9876883 0 -0.156434521
vn -0.9876883 0 -0.156434521
vn 0 1 0
vn 0 1 0
vn 0 1 0
vn -0.8910066 0 -0.45399037
vn -0.8910066 0 -0.45399037
vn -0.8910066 0 -0.45399037
vn -0.8910066 0 -0.45399037
vn 0 1 0
vn 0 1 0
vn 0 1 0
vn -0.7071066 0 -0.707106948
vn -0.7071066 0 -0.707106948
vn -0.7071066 0 -0.707106948
vn -0.7071066 0 -0.707106948
vn 0 1 0
vn 0 1 0
vn 0 1 0
vn -0.4539903 0 -0.891006649
vn -0.4539903 0 -0.891006649
vn -0.4539903 0 -0.891006649
vn -0.4539903 0 -0.891006649
vn 0 1 0
vn 0 1 0
vn 0 1 0
vn -0.156434625 0 -0.987688363
vn -0.156434625 0 -0.987688363
vn -0.156434625 0 -0.987688363
vn -0.156434625 0 -0.987688363
vn 0 0.99999994 0
vn 0 0.99999994 0
vn 0 0.99999994 0
vn 0.15643461 0 -0.9876883
vn 0.15643461 0 -0.9876883
vn 0.15643461 0 -0.9876883
vn 0.15643461 0 -0.9876883
vn 0 1 0
vn 0 1 0
vn 0 1 0
vn 0.453990519 0 -0.8910064
vn 0.453990519 0 -0.8910064
vn 0.453990519 0 -0.8910064
vn 0.453990519 0 -0.8910064
vn 0 1 0
vn 0 1 0
vn 0 1 0
vn 0.7071071 0 -0.707106531
vn 0.7071071 0 -0.707106531
vn 0.7071071 0 -0.707106531
vn 0.7071071 0 -0.707106531
vn 0 1 0
vn 0 1 0
vn 0 1 0
vn 0.891006649 0 -0.453990221
vn 0.891006649 0 -0.453990221
vn 0.891006649 0 -0.453990221
vn 0.891006649 0 -0.453990221
vn 0 1 0
vn 0 1 0
vn 0 1 0
vn 0.9876883 0 -0.156434417
vn 0.9876883 0 -0.156434417
vn 0.9876883 0 -0.156434417
vn 0.9876883 0 -0.156434417
vn 0 1 0
vn 0 1 0
vn 0 1 0
vn 0 -1 0
vn 0 -1 0
vn 0 -1 0
vn 0 -1 0
vn 0 -1 0
vn 0 -1 0
vn 0 -1 0
vn 0 -1 0
vn 0 -1 0
vn 0 -1 0
vn 0 -1 0
vn 0 -1 0
vn 0 -1 0
vn 0 -1 0
vn 0 -1 0
vn 0 -1 0
vn 0 -1 0
vn 0 -1 0
vn 0 -1 0
vn 0 -1 0
vn 0 -1 0
vn 0 -1 0
vn 0 -1 0
vn 0 -1 0
vn 0 -1 0
vn 0 -1 0
vn 0 -1 0
vn 0 -1 0
vn 0 -1 0
vn 0 -1 0
vn 0 -1 0
vn 0 -1 0
vn 0 -1 0
vn 0 -1 0
vn 0 -1 0
vn 0 -1 0
vn 0 -1 0
vn 0 -1 0
vn 0 -1 0
vn 0 -1 0
vn 0 -1 0
vn 0 -1 0
vn 0 -0.99999994 0
vn 0 -0.99999994 0
vn 0 -0.99999994 0
vn 0 -1 0
vn 0 -1 0
vn 0 -1 0
vn 0 -1 0
vn 0 -1 0
vn 0 -1 0
vn 0 -1 0
vn 0 -1 0
vn 0 -1 0
vn 0 -1 0
vn 0 -1 0
vn 0 -1 0
vn 0 -1 0
vn 0 -1 0
vn 0 -1 0
vn 0.980785251 0 0.1950904
vn 0.980785251 0 0.1950904
vn 0.980785251 0 0.1950904
vn 0.980785251 0 0.1950904
vn 0 1 0
vn 0 1 0
vn 0 1 0
vn 0.8314696 0 0.5555702
vn 0.8314696 0 0.5555702
vn 0.8314696 0 0.5555702
vn 0.8314696 0 0.5555702
vn 0 0.99999994 0
vn 0 0.99999994 0
vn 0 0.99999994 0
vn 0.5555702 0 0.831469655
vn 0.5555702 0 0.831469655
vn 0.5555702 0 0.831469655
vn 0.5555702 0 0.831469655
vn 0 1 0
vn 0 1 0
vn 0 1 0
vn 0.1950904 0 0.980785251
vn 0.1950904 0 0.980785251
vn 0.1950904 0 0.980785251
vn 0.1950904 0 0.980785251
vn 0 1 0
vn 0 1 0
vn 0 1 0
vn -0.1950904 0 0.9807853
vn -0.1950904 0 0.9807853
vn -0.1950904 0 0.9807853
vn -0.1950904 0 0.9807853
vn 0 1 0
vn 0 1 0
vn 0 1 0
vn -0.555570364 0 0.8314696
vn -0.555570364 0 0.8314696
vn -0.555570364 0 0.8314696
vn -0.555570364 0 0.8314696
vn 0 1 0
vn 0 1 0
vn 0 1 0
vn -0.831469536 0 0.555570364
vn -0.831469536 0 0.555570364
vn -0.831469536 0 0.555570364
vn -0.831469536 0 0.555570364
vn 0 1 0
vn 0 1 0
vn 0 1 0
vn -0.98078537 0 0.195090055
vn -0.98078537 0 0.195090055
vn -0.98078537 0 0.195090055
vn -0.98078537 0 0.195090055
vn 0 1 0
vn 0 1 0
vn 0 1 0
vn -0.980785251 0 -0.195090473
vn -0.980785251 0 -0.195090473
vn -0.980785251 0 -0.195090473
vn -0.980785251 0 -0.195090473
vn 0 1 0
vn 0 1 0
vn 0 1 0
vn -0.8314697 0 -0.5555702
vn -0.8314697 0 -0.5555702
vn -0.8314697 0 -0.5555702
vn -0.8314697 0 -0.5555702
vn 0 1 0
vn 0 1 0
vn 0 1 0
vn -0.55557 0 -0.831469834
vn -0.55557 0 -0.831469834
vn -0.55557 0 -0.831469834
vn -0.55557 0 -0.831469834
vn 0 1 0
vn 0 1 0
vn 0 1 0
vn -0.19509019 0 -0.98078537
vn -0.19509019 0 -0.98078537
vn -0.19509019 0 -0.98078537
vn -0.19509019 0 -0.98078537
vn 0 0.99999994 0
vn 0 0.99999994 0
vn 0 0.99999994 0
vn 0.195090547 0 -0.9807852
vn 0.195090547 0 -0.9807852
vn 0.195090547 0 -0.9807852
vn 0.195090547 0 -0.9807852
vn 0 1 0
vn 0 1 0
vn 0 1 0
vn 0.5555704 0 -0.8314695
vn 0.5555704 0 -0.8314695
vn 0.5555704 0 -0.8314695
vn 0.5555704 0 -0.8314695
vn 0 0.99999994 0
vn 0 0.99999994 0
vn 0 0.99999994 0
vn 0.8314697 0 -0.5555702
vn 0.8314697 0 -0.5555702
vn 0.8314697 0 -0.5555702
vn 0.8314697 0 -0.5555702
vn 0 1 0
vn 0 1 0
vn 0 1 0
vn 0.9807853 0 -0.19509016
vn 0.9807853 0 -0.19509016
vn 0.9807853 0 -0.19509016
vn 0.9807853 0 -0.19509016
vn 0 1 0
vn 0 1 0
vn 0 1 0
vn 0 -1 0
vn 0 -1 0
vn 0 -1 0
vn 0 -0.99999994 0
vn 0 -0.99999994 0
vn 0 -0.99999994 0
vn 0 -1 0
vn 0 -1 0
vn 0 -1 0
vn 0 -1 0
vn 0 -1 0
vn 0 -1 0
vn 0 -1 0
vn 0 -1 0
vn 0 -1 0
vn 0 -1 0
vn 0 -1 0
vn 0 -1 0
vn 0 -1 0
vn 0 -1 0
vn 0 -1 0
vn 0 -1 0
vn 0 -1 0
vn 0 -1 0
vn 0 -1 0
vn 0 -1 0
vn 0 -1 0
vn 0 -1 0
vn 0 -1 0
vn 0 -1 0
vn 0 -1 0
vn 0 -1 0
vn 0 -1 0
vn 0 -0.99999994 0
vn 0 -0.99999994 0
vn 0 -0.99999994 0
vn 0 -1 0
vn 0 -1 0
vn 0 -1 0
vn 0 -0.99999994 0
vn 0 -0.99999994 0
vn 0 -0.99999994 0
vn 0 -1 0
vn 0 -1 0
vn 0 -1 0
vn 0 -1 0
vn 0 -1 0
vn 0 -1 0
vn 0 0 -1
vn 0 0 -1
vn 0 0 -1
vn 0 0 -1
vn 0 0 1
vn 0 0 1
vn 0 0 1
vn 0 0 1
vn -1 0 0
vn -1 0 0
vn -1 0 0
vn -1 0 0
vn 1 0 0
vn 1 0 0
vn 1 0 0
vn 1 0 0
vn 0 1 0
vn 0 1 0
vn 0 1 0
vn 0 1 0
vn 0 -1 0
vn 0 -1 0
vn 0 -1 0
vn 0 -1 0
vn 0 0 -1
vn 0 0 -1
vn 0 0 -1
vn 0 0 -1
vn 0 0 1
vn 0 0 1
vn 0 0 1
vn 0 0 1
vn -1 0 0
vn -1 0 0
vn -1 0 0
vn -1 0 0
vn 1 0 0
vn 1 0 0
vn 1 0 0
vn 1 0 0
vn 0 1 0
vn 0 1 0
vn 0 1 0
vn 0 1 0
vn 0 -1 0
vn 0 -1 0
vn 0 -1 0
vn 0 -1 0
f 1/1/1 2/2/2 3/3/3
f 1/1/1 3/3/3 4/4/4
f 5/5/5 7/7/7 6/6/6
f 8/8/8 9/9/9 10/10/10
f 8/8/8 10/10/10 11/11/11
f 12/12/12 14/14/14 13/13/13
f 15/15/15 16/16/16 17/17/17
f 15/15/15 17/17/17 18/18/18
f 19/19/19 21/21/21 20/20/20
f 22/22/22 23/23/23 24/24/24
f 22/22/22 24/24/24 25/25/25
f 26/26/26 28/28/28 27/27/27
f 29/29/29 30/30/30 31/31/31
f 29/29/29 31/31/31 32/32/32
f 33/33/33 35/35/35 34/34/34
f 36/36/36 37/37/37 38/38/38
f 36/36/36 38/38/38 39/39/39
f 40/40/40 42/42/42 41/41/41
f 43/43/43 44/44/44 45/45/45
f 43/43/43 45/45/45 46/46/46
f 47/47/47 49/49/49 48/48/48
f 50/50/50 51/51/51 52/52/52
f 50/50/50 52/52/52 53/53/53
f 54/54/54 56/56/56 55/55/55
f 57/57/57 58/58/58 59/59/59
f 57/57/57 59/59/59 60/60/60
f 61/61/61 63/63/63 62/62/62
f 64/64/64 65/65/65 66/66/66
f 64/64/64 66/66/66 67/67/67
f 68/68/68 70/70/70 69/69/69
f 71/71/71 72/72/72 73/73/73
f 71/71/71 73/73/73 74/74/74
f 75/75/75 77/77/77 76/76/76
f 78/78/78 79/79/79 80/80/80
f 78/78/78 80/80/80 81/81/81
f 82/82/82 84/84/84 83/83/83
f 85/85/85 86/86/86 87/87/87
f 85/85/85 87/87/87 88/88/88
f 89/89/89 91/91/91 90/90/90
f 92/92/92 93/93/93 94/94/94
f 92/92/92 94/94/94 95/95/95
f 96/96/96 98/98/98 97/97/97
f 99/99/99 100/100/100 101/101/101
f 99/99/99 101/101/101 102/102/102
f 103/103/103 105/105/105 104/104/104
f 106/106/106 107/107/107 108/108/108
f 106/106/106 108/108/108 109/109/109
f 110/110/110 112/112/112 111/111/111
f 113/113/113 114/114/114 115/115/115
f 113/113/113 115/115/115 116/116/116
f 117/117/117 119/119/119 118/118/118
f 120/120/120 121/121/121 122/122/122
f 120/120/120 122/122/122 123/123/123
f 124/124/124 126/126/126 125/125/125
f 127/127/127 128/128/128 129/129/129
f 127/127/127 129/129/129 130/130/130
f 131/131/131 133/133/133 132/132/132
f 134/134/134 135/135/135 136/136/136
f 134/134/134 136/136/136 137/137/137
f 138/138/138 140/140/140 139/139/139
f 141/141/141 142/142/142 143/143/143
f 144/144/144 145/145/145 146/146/146
f 147/147/147 148/148/148 149/149/149
f 150/150/150 151/151/151 152/152/152
f 153/153/153 154/154/154 155/155/155
f 156/156/156 157/157/157 158/158/158
f 159/159/159 160/160/160 161/161/161
f 162/162/162 163/163/163 164/164/164
f 165/165/165 166/166/166 167/167/167
f 168/168/168 169/169/169 170/170/170
f 171/171/171 172/172/172 173/173/173
f 174/174/174 175/175/175 176/176/176
f 177/177/177 178/178/178 179/179/179
f 180/180/180 181/181/181 182/182/182
f 183/183/183 184/184/184 185/185/185
f 186/186/186 187/187/187 188/188/188
f 189/189/189 190/190/190 191/191/191
f 192/192/192 193/193/193 194/194/194
f 195/195/195 196/196/196 197/197/197
f 198/198/198 199/199/199 200/200/200
f 201/201/201 202/202/202 203/203/203
f 201/201/201 203/203/203 204/204/204
f 205/205/205 207/207/207 206/206/206
f 208/208/208 209/209/209 210/210/210
f 208/208/208 210/210/210 211/211/211
f 212/212/212 214/214/214 213/213/213
f 215/215/215 216/216/216 217/217/217
f 215/215/215 217/217/217 218/218/218
f 219/219/219 221/221/221 220/220/220
f 222/222/222 223/223/223 224/224/224
f 222/222/222 224/224/224 225/225/225
f 226/226/226 228/228/228 227/227/227
f 229/229/229 230/230/230 231/231/231
f 229/229/229 231/231/231 232/232/232
f 233/233/233 235/235/235 234/234/234
f 236/236/236 237/237/237 238/238/238
f 236/236/236 238/238/238 239/239/239
f 240/240/240 242/242/242 241/241/241
f 243/243/243 244/244/244 245/245/245
f 243/243/243 245/245/245 246/246/246
f 247/247/247 249/249/249 248/248/248
f 250/250/250 251/251/251 252/252/252
f 250/250/250 252/252/252 253/253/253
f 254/254/254 256/256/256 255/255/255
f 257/257/257 258/258/258 259/259/259
f 257/257/257 259/259/259 260/260/260
f 261/261/261 263/263/263 262/262/262
f 264/264/264 265/265/265 266/266/266
f 264/264/264 266/266/266 267/267/267
f 268/268/268 270/270/270 269/269/269
f 271/271/271 272/272/272 273/273/273
f 271/271/271 273/273/273 274/274/274
f 275/275/275 277/277/277 276/276/276
f 278/278/278 279/279/279 280/280/280
f 278/278/278 280/280/280 281/281/281
f 282/282/282 284/284/284 283/283/283
f 285/285/285 286/286/286 287/287/287
f 285/285/285 287/287/287 288/288/288
f 289/289/289 291/291/291 290/290/290
f 292/292/292 293/293/293 294/294/294
f 292/292/292 294/294/294 295/295/295
f 296/296/296 298/298/298 297/297/297
f 299/299/299 300/300/300 301/301/301
f 299/299/299 301/301/301 302/302/302
f 303/303/303 305/305/305 304/304/304
f 306/306/306 307/307/307 308/308/308
f 306/306/306 308/308/308 309/309/309
f 310/310/310 312/312/312 311/311/311
f 313/313/313 314/314/314 315/315/315
f 316/316/316 317/317/317 318/318/318
f 319/319/319 320/320/320 321/321/321
f 322/322/322 323/323/323 324/324/324
f 325/325/325 326/326/326 327/327/327
f 328/328/328 329/329/329 330/330/330
f 331/331/331 332/332/332 333/333/333
f 334/334/334 335/335/335 336/336/336
f 337/337/337 338/338/338 339/339/339
f 340/340/340 341/341/341 342/342/342
f 343/343/343 344/344/344 345/345/345
f 346/346/346 347/347/347 348/348/348
f 349/349/349 350/350/350 351/351/351
f 352/352/352 353/353/353 354/354/354
f 355/355/355 356/356/356 357/357/357
f 358/358/358 359/359/359 360/360/360
f 361/361/361 362/362/362 363/363/363
f 361/361/361 363/363/363 364/364/364
f 365/365/365 366/366/366 367/367/367
f 365/365/365 367/367/367 368/368/368
f 369/369/369 370/370/370 371/371/371
f 369/369/369 371/371/371 372/372/372
f 373/373/373 374/374/374 375/375/375
f 373/373/373 375/375/375 376/376/376
f 377/377/377 378/378/378 379/379/379
f 377/377/377 379/379/379 380/380/380
f 381/381/381 382/382/382 383/383/383
f 381/381/381 383/383/383 384/384/384
f 385/385/385 386/386/386 387/387/387
f 385/385/385 387/387/387 388/388/388
f 389/389/389 390/390/390 391/391/391
f 389/389/389 391/391/391 392/392/392
f 393/393/393 394/394/394 395/395/395
f 393/393/393 395/395/395 396/396/396
f 397/397/397 398/398/398 399/399/399
f 397/397/397 399/399/399 400/400/400
f 401/401/401 402/402/402 403/403/403
f 401/401/401 403/403/403 404/404/404
f 405/405/405 406/406/406 407/407/407
f 405/405/405 407/407/407 408/408/408
