v 0.48 -0.08 0
v 0.48 0.08 0
v 0.40380168 0.08 0.2595076
v 0.40380168 -0.08 0.2595076
v 0 0.08 0
v 0.48 0.08 0
v 0.40380168 0.08 0.2595076
v 0.40380168 -0.08 0.2595076
v 0.40380168 0.08 0.2595076
v 0.199399173 0.08 0.436623365
v 0.199399173 -0.08 0.436623365
v 0 0.08 0
v 0.40380168 0.08 0.2595076
v 0.199399173 0.08 0.436623365
v 0.199399173 -0.08 0.436623365
v 0.199399173 0.08 0.436623365
v -0.06831112 0.08 0.4751143
v -0.06831112 -0.08 0.4751143
v 0 0.08 0
v 0.199399173 0.08 0.436623365
v -0.06831112 0.08 0.4751143
v -0.06831112 -0.08 0.4751143
v -0.06831112 0.08 0.4751143
v -0.3143332 0.08 0.362759739
v -0.3143332 -0.08 0.362759739
v 0 0.08 0
v -0.06831112 0.08 0.4751143
v -0.3143332 0.08 0.362759739
v -0.3143332 -0.08 0.362759739
v -0.3143332 0.08 0.362759739
v -0.460556656 0.08 0.13523154
v -0.460556656 -0.08 0.13523154
v 0 0.08 0
v -0.3143332 0.08 0.362759739
v -0.460556656 0.08 0.13523154
v -0.460556656 -0.08 0.13523154
v -0.460556656 0.08 0.13523154
v -0.460556626 0.08 -0.135231629
v -0.460556626 -0.08 -0.135231629
v 0 0.08 0
v -0.460556656 0.08 0.13523154
v -0.460556626 0.08 -0.135231629
v -0.460556626 -0.08 -0.135231629
v -0.460556626 0.08 -0.135231629
v -0.314333141 0.08 -0.3627598
v -0.314333141 -0.08 -0.3627598
v 0 0.08 0
v -0.460556626 0.08 -0.135231629
v -0.314333141 0.08 -0.3627598
v -0.314333141 -0.08 -0.3627598
v -0.314333141 0.08 -0.3627598
v -0.068310976 0.08 -0.475114316
v -0.068310976 -0.08 -0.475114316
v 0 0.08 0
v -0.314333141 0.08 -0.3627598
v -0.068310976 0.08 -0.475114316
v -0.068310976 -0.08 -0.475114316
v -0.068310976 0.08 -0.475114316
v 0.199399248 0.08 -0.436623335
v 0.199399248 -0.08 -0.436623335
v 0 0.08 0
v -0.068310976 0.08 -0.475114316
v 0.199399248 0.08 -0.436623335
v 0.199399248 -0.08 -0.436623335
v 0.199399248 0.08 -0.436623335
v 0.4038018 0.08 -0.259507418
v 0.4038018 -0.08 -0.259507418
v 0 0.08 0
v 0.199399248 0.08 -0.436623335
v 0.4038018 0.08 -0.259507418
v 0.4038018 -0.08 -0.259507418
v 0.4038018 0.08 -0.259507418
v 0.48 0.08 8.392586E-08
v 0.48 -0.08 8.392586E-08
v 0 0.08 0
v 0.4038018 0.08 -0.259507418
v 0.48 0.08 8.392586E-08
v 0 -0.08 0
v 0.48 -0.08 0
v 0.40380168 -0.08 0.2595076
v 0 -0.08 0
v 0.40380168 -0.08 0.2595076
v 0.199399173 -0.08 0.436623365
v 0 -0.08 0
v 0.199399173 -0.08 0.436623365
v -0.06831112 -0.08 0.4751143
v 0 -0.08 0
v -0.06831112 -0.08 0.4751143
v -0.3143332 -0.08 0.362759739
v 0 -0.08 0
v -0.3143332 -0.08 0.362759739
v -0.460556656 -0.08 0.13523154
v 0 -0.08 0
v -0.460556656 -0.08 0.13523154
v -0.460556626 -0.08 -0.135231629
v 0 -0.08 0
v -0.460556626 -0.08 -0.135231629
v -0.314333141 -0.08 -0.3627598
v 0 -0.08 0
v -0.314333141 -0.08 -0.3627598
v -0.068310976 -0.08 -0.475114316
v 0 -0.08 0
v -0.068310976 -0.08 -0.475114316
v 0.199399248 -0.08 -0.436623335
v 0 -0.08 0
v 0.199399248 -0.08 -0.436623335
v 0.4038018 -0.08 -0.259507418
v 0 -0.08 0
v 0.4038018 -0.08 -0.259507418
v 0.48 -0.08 8.392586E-08
v 0.36 0.0749999955 0
v 0.36 0.164999992 0
v 0.291246146 0.164999992 0.2116027
v 0.291246146 0.0749999955 0.2116027
v 0 0.164999992 0
v 0.36 0.164999992 0
v 0.291246146 0.164999992 0.2116027
v 0.291246146 0.0749999955 0.2116027
v 0.291246146 0.164999992 0.2116027
v 0.111246116 0.164999992 0.342380375
v 0.111246116 0.0749999955 0.342380375
v 0 0.164999992 0
v 0.291246146 0.164999992 0.2116027
v 0.111246116 0.164999992 0.342380375
v 0.111246116 0.0749999955 0.342380375
v 0.111246116 0.164999992 0.342380375
v -0.111246139 0.164999992 0.342380345
v -0.111246139 0.0749999955 0.342380345
v 0 0.164999992 0
v 0.111246116 0.164999992 0.342380375
v -0.111246139 0.164999992 0.342380345
v -0.111246139 0.0749999955 0.342380345
v -0.111246139 0.164999992 0.342380345
v -0.291246146 0.164999992 0.211602673
v -0.291246146 0.0749999955 0.211602673
v 0 0.164999992 0
v -0.111246139 0.164999992 0.342380345
v -0.291246146 0.164999992 0.211602673
v -0.291246146 0.0749999955 0.211602673
v -0.291246146 0.164999992 0.211602673
v -0.36 0.164999992 -3.14722E-08
v -0.36 0.0749999955 -3.14722E-08
v 0 0.164999992 0
v -0.291246146 0.164999992 0.211602673
v -0.36 0.164999992 -3.14722E-08
v -0.36 0.0749999955 -3.14722E-08
v -0.36 0.164999992 -3.14722E-08
v -0.291246116 0.164999992 -0.211602733
v -0.291246116 0.0749999955 -0.211602733
v 0 0.164999992 0
v -0.36 0.164999992 -3.14722E-08
v -0.291246116 0.164999992 -0.211602733
v -0.291246116 0.0749999955 -0.211602733
v -0.291246116 0.164999992 -0.211602733
v -0.111246161 0.164999992 -0.342380345
v -0.111246161 0.0749999955 -0.342380345
v 0 0.164999992 0
v -0.291246116 0.164999992 -0.211602733
v -0.111246161 0.164999992 -0.342380345
v -0.111246161 0.0749999955 -0.342380345
v -0.111246161 0.164999992 -0.342380345
v 0.111246169 0.164999992 -0.342380345
v 0.111246169 0.0749999955 -0.342380345
v 0 0.164999992 0
v -0.111246161 0.164999992 -0.342380345
v 0.111246169 0.164999992 -0.342380345
v 0.111246169 0.0749999955 -0.342380345
v 0.111246169 0.164999992 -0.342380345
v 0.2912462 0.164999992 -0.211602584
v 0.2912462 0.0749999955 -0.211602584
v 0 0.164999992 0
v 0.111246169 0.164999992 -0.342380345
v 0.2912462 0.164999992 -0.211602584
v 0.2912462 0.0749999955 -0.211602584
v 0.2912462 0.164999992 -0.211602584
v 0.36 0.164999992 6.29444E-08
v 0.36 0.0749999955 6.29444E-08
v 0 0.164999992 0
v 0.2912462 0.164999992 -0.211602584
v 0.36 0.164999992 6.29444E-08
v 0 0.0749999955 0
v 0.36 0.0749999955 0
v 0.291246146 0.0749999955 0.2116027
v 0 0.0749999955 0
v 0.291246146 0.0749999955 0.2116027
v 0.111246116 0.0749999955 0.342380375
v 0 0.0749999955 0
v 0.111246116 0.0749999955 0.342380375
v -0.111246139 0.0749999955 0.342380345
v 0 0.0749999955 0
v -0.111246139 0.0749999955 0.342380345
v -0.291246146 0.0749999955 0.211602673
v 0 0.0749999955 0
v -0.291246146 0.0749999955 0.211602673
v -0.36 0.0749999955 -3.14722E-08
v 0 0.0749999955 0
v -0.36 0.0749999955 -3.14722E-08
v -0.291246116 0.0749999955 -0.211602733
v 0 0.0749999955 0
v -0.291246116 0.0749999955 -0.211602733
v -0.111246161 0.0749999955 -0.342380345
v 0 0.0749999955 0
v -0.111246161 0.0749999955 -0.342380345
v 0.111246169 0.0749999955 -0.342380345
v 0 0.0749999955 0
v 0.111246169 0.0749999955 -0.342380345
v 0.2912462 0.0749999955 -0.211602584
v 0 0.0749999955 0
v 0.2912462 0.0749999955 -0.211602584
v 0.36 0.0749999955 6.29444E-08
vt 0.9941406 0.25
vt 0.9941406 0.25
vt 0.9752275 0.3819924
vt 0.9752275 0.3819924
vt 0.875 0.25
vt 0.9941406 0.25
vt 0.9752275 0.3819924
vt 0.9752275 0.3819924
vt 0.9752275 0.3819924
vt 0.9244928 0.472078145
vt 0.9244928 0.472078145
vt 0.875 0.25
vt 0.9752275 0.3819924
vt 0.9244928 0.472078145
vt 0.9244928 0.472078145
vt 0.9244928 0.472078145
vt 0.8580445 0.491655618
vt 0.8580445 0.491655618
vt 0.875 0.25
vt 0.9244928 0.472078145
vt 0.8580445 0.491655618
vt 0.8580445 0.491655618
vt 0.8580445 0.491655618
vt 0.7969795 0.434509158
vt 0.7969795 0.434509158
vt 0.875 0.25
vt 0.8580445 0.491655618
vt 0.7969795 0.434509158
vt 0.7969795 0.434509158
vt 0.7969795 0.434509158
vt 0.7606854 0.31878233
vt 0.7606854 0.31878233
vt 0.875 0.25
vt 0.7969795 0.434509158
vt 0.7606854 0.31878233
vt 0.7606854 0.31878233
vt 0.7606854 0.31878233
vt 0.7606854 0.181217641
vt 0.7606854 0.181217641
vt 0.875 0.25
vt 0.7606854 0.31878233
vt 0.7606854 0.181217641
vt 0.7606854 0.181217641
vt 0.7606854 0.181217641
vt 0.7969795 0.06549082
vt 0.7969795 0.06549082
vt 0.875 0.25
vt 0.7606854 0.181217641
vt 0.7969795 0.06549082
vt 0.7969795 0.06549082
vt 0.7969795 0.06549082
vt 0.858044565 0.008344357
vt 0.858044565 0.008344357
vt 0.875 0.25
vt 0.7969795 0.06549082
vt 0.858044565 0.008344357
vt 0.858044565 0.008344357
vt 0.858044565 0.008344357
vt 0.924492836 0.0279218834
vt 0.924492836 0.0279218834
vt 0.875 0.25
vt 0.858044565 0.008344357
vt 0.924492836 0.0279218834
vt 0.924492836 0.0279218834
vt 0.924492836 0.0279218834
vt 0.9752275 0.1180077
vt 0.9752275 0.1180077
vt 0.875 0.25
vt 0.924492836 0.0279218834
vt 0.9752275 0.1180077
vt 0.9752275 0.1180077
vt 0.9752275 0.1180077
vt 0.9941406 0.25000003
vt 0.9941406 0.25000003
vt 0.875 0.25
vt 0.9752275 0.1180077
vt 0.9941406 0.25000003
vt 0.875 0.25
vt 0.7558594 0.005859375
vt 0.9941406 0.494140625
vt 0.875 0.25
vt 0.7558594 0.005859375
vt 0.9941406 0.494140625
vt 0.875 0.25
vt 0.7558594 0.005859375
vt 0.9941406 0.494140625
vt 0.875 0.25
vt 0.7558594 0.005859375
vt 0.9941406 0.494140625
vt 0.875 0.25
vt 0.7558594 0.005859375
vt 0.9941406 0.494140625
vt 0.875 0.25
vt 0.7558594 0.005859375
vt 0.9941406 0.494140625
vt 0.875 0.25
vt 0.7558594 0.005859375
vt 0.9941406 0.494140625
vt 0.875 0.25
vt 0.7558594 0.005859375
vt 0.9941406 0.494140625
vt 0.875 0.25
vt 0.7558594 0.005859375
vt 0.9941406 0.494140625
vt 0.875 0.25
vt 0.7558594 0.005859375
vt 0.9941406 0.494140625
vt 0.875 0.25
vt 0.7558594 0.005859375
vt 0.9941406 0.494140625
vt 0.244140625 0.75
vt 0.244140625 0.75
vt 0.2213868 0.893502235
vt 0.2213868 0.893502235
vt 0.125 0.75
vt 0.244140625 0.75
vt 0.2213868 0.893502235
vt 0.2213868 0.893502235
vt 0.2213868 0.893502235
vt 0.161816478 0.982191563
vt 0.161816478 0.982191563
vt 0.125 0.75
vt 0.2213868 0.893502235
vt 0.161816478 0.982191563
vt 0.161816478 0.982191563
vt 0.161816478 0.982191563
vt 0.0881835148 0.9821915
vt 0.0881835148 0.9821915
vt 0.125 0.75
vt 0.161816478 0.982191563
vt 0.0881835148 0.9821915
vt 0.0881835148 0.9821915
vt 0.0881835148 0.9821915
vt 0.0286132041 0.893502235
vt 0.0286132041 0.893502235
vt 0.125 0.75
vt 0.0881835148 0.9821915
vt 0.0286132041 0.893502235
vt 0.0286132041 0.893502235
vt 0.0286132041 0.893502235
vt 0.005859375 0.75
vt 0.005859375 0.75
vt 0.125 0.75
vt 0.0286132041 0.893502235
vt 0.005859375 0.75
vt 0.005859375 0.75
vt 0.005859375 0.75
vt 0.0286132134 0.6064977
vt 0.0286132134 0.6064977
vt 0.125 0.75
vt 0.005859375 0.75
vt 0.0286132134 0.6064977
vt 0.0286132134 0.6064977
vt 0.0286132134 0.6064977
vt 0.08818351 0.5178085
vt 0.08818351 0.5178085
vt 0.125 0.75
vt 0.0286132134 0.6064977
vt 0.08818351 0.5178085
vt 0.08818351 0.5178085
vt 0.08818351 0.5178085
vt 0.161816508 0.5178085
vt 0.161816508 0.5178085
vt 0.125 0.75
vt 0.08818351 0.5178085
vt 0.161816508 0.5178085
vt 0.161816508 0.5178085
vt 0.161816508 0.5178085
vt 0.22138682 0.6064978
vt 0.22138682 0.6064978
vt 0.125 0.75
vt 0.161816508 0.5178085
vt 0.22138682 0.6064978
vt 0.22138682 0.6064978
vt 0.22138682 0.6064978
vt 0.244140625 0.75
vt 0.244140625 0.75
vt 0.125 0.75
vt 0.22138682 0.6064978
vt 0.244140625 0.75
vt 0.125 0.75
vt 0.005859375 0.5058594
vt 0.244140625 0.9941406
vt 0.125 0.75
vt 0.005859375 0.5058594
vt 0.244140625 0.9941406
vt 0.125 0.75
vt 0.005859375 0.5058594
vt 0.244140625 0.9941406
vt 0.125 0.75
vt 0.005859375 0.5058594
vt 0.244140625 0.9941406
vt 0.125 0.75
vt 0.005859375 0.5058594
vt 0.244140625 0.9941406
vt 0.125 0.75
vt 0.005859375 0.5058594
vt 0.244140625 0.9941406
vt 0.125 0.75
vt 0.005859375 0.5058594
vt 0.244140625 0.9941406
vt 0.125 0.75
vt 0.005859375 0.5058594
vt 0.244140625 0.9941406
vt 0.125 0.75
vt 0.005859375 0.5058594
vt 0.244140625 0.9941406
vt 0.125 0.75
vt 0.005859375 0.5058594
vt 0.244140625 0.9941406
vn 0.959493 0 0.2817326
vn 0.959493 0 0.2817326
vn 0.959493 0 0.2817326
vn 0.959493 0 0.2817326
vn 0 1 0
vn 0 1 0
vn 0 1 0
vn 0.6548607 0 0.7557496
vn 0.6548607 0 0.7557496
vn 0.6548607 0 0.7557496
vn 0.6548607 0 0.7557496
vn 0 1 0
vn 0 1 0
vn 0 1 0
vn 0.1423148 0 0.989821434
vn 0.1423148 0 0.989821434
vn 0.1423148 0 0.989821434
vn 0.1423148 0 0.989821434
vn 0 1 0
vn 0 1 0
vn 0 1 0
vn -0.415415078 0 0.9096319
vn -0.415415078 0 0.9096319
vn -0.415415078 0 0.9096319
vn -0.415415078 0 0.9096319
vn 0 1 0
vn 0 1 0
vn 0 1 0
vn -0.8412536 0 0.5406407
vn -0.8412536 0 0.5406407
vn -0.8412536 0 0.5406407
vn -0.8412536 0 0.5406407
vn 0 1 0
vn 0 1 0
vn 0 1 0
vn -1 0 -1.10189958E-07
vn -1 0 -1.10189958E-07
vn -1 0 -1.10189958E-07
vn -1 0 -1.10189958E-07
vn 0 1 0
vn 0 1 0
vn 0 1 0
vn -0.8412535 0 -0.540640831
vn -0.8412535 0 -0.540640831
vn -0.8412535 0 -0.540640831
vn -0.8412535 0 -0.540640831
vn 0 1 0
vn 0 1 0
vn 0 1 0
vn -0.4154149 0 -0.9096321
vn -0.4154149 0 -0.9096321
vn -0.4154149 0 -0.9096321
vn -0.4154149 0 -0.9096321
vn 0 1 0
vn 0 1 0
vn 0 1 0
vn 0.14231506 0 -0.989821434
vn 0.14231506 0 -0.989821434
vn 0.14231506 0 -0.989821434
vn 0.14231506 0 -0.989821434
vn 0 1 0
vn 0 1 0
vn 0 1 0
vn 0.654861 0 -0.755749464
vn 0.654861 0 -0.755749464
vn 0.654861 0 -0.755749464
vn 0.654861 0 -0.755749464
vn 0 1 0
vn 0 1 0
vn 0 1 0
vn 0.9594931 0 -0.281732261
vn 0.9594931 0 -0.281732261
vn 0.9594931 0 -0.281732261
vn 0.9594931 0 -0.281732261
vn 0 1 0
vn 0 1 0
vn 0 1 0
vn 0 -1 0
vn 0 -1 0
vn 0 -1 0
vn 0 -1 0
vn 0 -1 0
vn 0 -1 0
vn 0 -1 0
vn 0 -1 0
vn 0 -1 0
vn 0 -1 0
vn 0 -1 0
vn 0 -1 0
vn 0 -1 0
vn 0 -1 0
vn 0 -1 0
vn 0 -1 0
vn 0 -1 0
vn 0 -1 0
vn 0 -1 0
vn 0 -1 0
vn 0 -1 0
vn 0 -1 0
vn 0 -1 0
vn 0 -1 0
vn 0 -1 0
vn 0 -1 0
vn 0 -1 0
vn 0 -1 0
vn 0 -1 0
vn 0 -1 0
vn 0 -1 0
vn 0 -1 0
vn 0 -1 0
vn 0.95105654 0 0.3090169
vn 0.95105654 0 0.3090169
vn 0.95105654 0 0.3090169
vn 0.95105654 0 0.3090169
vn 0 1 0
vn 0 1 0
vn 0 1 0
vn 0.587785244 0 0.809017
vn 0.587785244 0 0.809017
vn 0.587785244 0 0.809017
vn 0.587785244 0 0.809017
vn 0 1 0
vn 0 1 0
vn 0 1 0
vn -1.339477E-07 0 1
vn -1.339477E-07 0 1
vn -1.339477E-07 0 1
vn -1.339477E-07 0 1
vn 0 1 0
vn 0 1 0
vn 0 1 0
vn -0.587785244 0 0.809017
vn -0.587785244 0 0.809017
vn -0.587785244 0 0.809017
vn -0.587785244 0 0.809017
vn 0 1 0
vn 0 1 0
vn 0 1 0
vn -0.95105654 0 0.3090169
vn -0.95105654 0 0.3090169
vn -0.95105654 0 0.3090169
vn -0.95105654 0 0.3090169
vn 0 1 0
vn 0 1 0
vn 0 1 0
vn -0.95105654 0 -0.309017062
vn -0.95105654 0 -0.309017062
vn -0.95105654 0 -0.309017062
vn -0.95105654 0 -0.309017062
vn 0 1 0
vn 0 1 0
vn 0 1 0
vn -0.587785244 0 -0.809017
vn -0.587785244 0 -0.809017
vn -0.587785244 0 -0.809017
vn -0.587785244 0 -0.809017
vn 0 1 0
vn 0 1 0
vn 0 1 0
vn 0 0 -1
vn 0 0 -1
vn 0 0 -1
vn 0 0 -1
vn 0 1 0
vn 0 1 0
vn 0 1 0
vn 0.5877855 0 -0.8090168
vn 0.5877855 0 -0.8090168
vn 0.5877855 0 -0.8090168
vn 0.5877855 0 -0.8090168
vn 0 1 0
vn 0 1 0
vn 0 1 0
vn 0.9510566 0 -0.309016764
vn 0.9510566 0 -0.309016764
vn 0.9510566 0 -0.309016764
vn 0.9510566 0 -0.309016764
vn 0 1 0
vn 0 1 0
vn 0 1 0
vn 0 -1 0
vn 0 -1 0
vn 0 -1 0
vn 0 -1 0
vn 0 -1 0
vn 0 -1 0
vn 0 -1 0
vn 0 -1 0
vn 0 -1 0
vn 0 -1 0
vn 0 -1 0
vn 0 -1 0
vn 0 -1 0
vn 0 -1 0
vn 0 -1 0
vn 0 -1 0
vn 0 -1 0
vn 0 -1 0
vn 0 -1 0
vn 0 -1 0
vn 0 -1 0
vn 0 -1 0
vn 0 -1 0
vn 0 -1 0
vn 0 -1 0
vn 0 -1 0
vn 0 -1 0
vn 0 -1 0
vn 0 -1 0
vn 0 -1 0
f 1/1/1 2/2/2 3/3/3
f 1/1/1 3/3/3 4/4/4
f 5/5/5 7/7/7 6/6/6
f 8/8/8 9/9/9 10/10/10
f 8/8/8 10/10/10 11/11/11
f 12/12/12 14/14/14 13/13/13
f 15/15/15 16/16/16 17/17/17
f 15/15/15 17/17/17 18/18/18
f 19/19/19 21/21/21 20/20/20
f 22/22/22 23/23/23 24/24/24
f 22/22/22 24/24/24 25/25/25
f 26/26/26 28/28/28 27/27/27
f 29/29/29 30/30/30 31/31/31
f 29/29/29 31/31/31 32/32/32
f 33/33/33 35/35/35 34/34/34
f 36/36/36 37/37/37 38/38/38
f 36/36/36 38/38/38 39/39/39
f 40/40/40 42/42/42 41/41/41
f 43/43/43 44/44/44 45/45/45
f 43/43/43 45/45/45 46/46/46
f 47/47/47 49/49/49 48/48/48
f 50/50/50 51/51/51 52/52/52
f 50/50/50 52/52/52 53/53/53
f 54/54/54 56/56/56 55/55/55
f 57/57/57 58/58/58 59/59/59
f 57/57/57 59/59/59 60/60/60
f 61/61/61 63/63/63 62/62/62
f 64/64/64 65/65/65 66/66/66
f 64/64/64 66/66/66 67/67/67
f 68/68/68 70/70/70 69/69/69
f 71/71/71 72/72/72 73/73/73
f 71/71/71 73/73/73 74/74/74
f 75/75/75 77/77/77 76/76/76
f 78/78/78 79/79/79 80/80/80
f 81/81/81 82/82/82 83/83/83
f 84/84/84 85/85/85 86/86/86
f 87/87/87 88/88/88 89/89/89
f 90/90/90 91/91/91 92/92/92
f 93/93/93 94/94/94 95/95/95
f 96/96/96 97/97/97 98/98/98
f 99/99/99 100/100/100 101/101/101
f 102/102/102 103/103/103 104/104/104
f 105/105/105 106/106/106 107/107/107
f 108/108/108 109/109/109 110/110/110
f 111/111/111 112/112/112 113/113/113
f 111/111/111 113/113/113 114/114/114
f 115/115/115 117/117/117 116/116/116
f 118/118/118 119/119/119 120/120/120
f 118/118/118 120/120/120 121/121/121
f 122/122/122 124/124/124 123/123/123
f 125/125/125 126/126/126 127/127/127
f 125/125/125 127/127/127 128/128/128
f 129/129/129 131/131/131 130/130/130
f 132/132/132 133/133/133 134/134/134
f 132/132/132 134/134/134 135/135/135
f 136/136/136 138/138/138 137/137/137
f 139/139/139 140/140/140 141/141/141
f 139/139/139 141/141/141 142/142/142
f 143/143/143 145/145/145 144/144/144
f 146/146/146 147/147/147 148/148/148
f 146/146/146 148/148/148 149/149/149
f 150/150/150 152/152/152 151/151/151
f 153/153/153 154/154/154 155/155/155
f 153/153/153 155/155/155 156/156/156
f 157/157/157 159/159/159 158/158/158
f 160/160/160 161/161/161 162/162/162
f 160/160/160 162/162/162 163/163/163
f 164/164/164 166/166/166 165/165/165
f 167/167/167 168/168/168 169/169/169
f 167/167/167 169/169/169 170/170/170
f 171/171/171 173/173/173 172/172/172
f 174/174/174 175/175/175 176/176/176
f 174/174/174 176/176/176 177/177/177
f 178/178/178 180/180/180 179/179/179
f 181/181/181 182/182/182 183/183/183
f 184/184/184 185/185/185 186/186/186
f 187/187/187 188/188/188 189/189/189
f 190/190/190 191/191/191 192/192/192
f 193/193/193 194/194/194 195/195/195
f 196/196/196 197/197/197 198/198/198
f 199/199/199 200/200/200 201/201/201
f 202/202/202 203/203/203 204/204/204
f 205/205/205 206/206/206 207/207/207
f 208/208/208 209/209/209 210/210/210
